<svg xmlns="http://www.w3.org/2000/svg" version="1.1" xmlns:xlink="http://www.w3.org/1999/xlink" width="83" height="78" x="0" y="0" viewBox="0 0 64 64" style="enable-background:new 0 0 83 78" xml:space="preserve" class=""><g><path d="M57 14H35.3a.4.4 0 0 1-.074-.139 14.19 14.19 0 0 0-.953-2.281.4.4 0 0 1 .081-.465 1.011 1.011 0 0 0 .1-.116 2.4 2.4 0 0 0-.093-3.276l-2.09-2.086a2.4 2.4 0 0 0-3.265-.092 1.009 1.009 0 0 0-.121.106.4.4 0 0 1-.457.085 14.339 14.339 0 0 0-2.306-.963.387.387 0 0 1-.262-.383A2.393 2.393 0 0 0 23.47 2h-2.94a2.4 2.4 0 0 0-2.39 2.42.352.352 0 0 1-.244.348 14.618 14.618 0 0 0-2.316.964.4.4 0 0 1-.465-.081A1.011 1.011 0 0 0 15 5.55a2.4 2.4 0 0 0-3.276.093L9.637 7.729a2.4 2.4 0 0 0-.092 3.265 1.009 1.009 0 0 0 .106.121.4.4 0 0 1 .085.457 14.339 14.339 0 0 0-.963 2.306.387.387 0 0 1-.383.262A2.393 2.393 0 0 0 6 16.53v2.94a2.393 2.393 0 0 0 2.39 2.39.393.393 0 0 1 .389.279 14.19 14.19 0 0 0 .953 2.281.4.4 0 0 1-.081.465 1.011 1.011 0 0 0-.1.116 2.4 2.4 0 0 0 .093 3.276l2.086 2.086a2.4 2.4 0 0 0 3.265.092 1.009 1.009 0 0 0 .121-.106.394.394 0 0 1 .457-.085 14.339 14.339 0 0 0 2.306.963.387.387 0 0 1 .262.383A2.393 2.393 0 0 0 20.53 34H22v27a1 1 0 0 0 1 1h30a1 1 0 0 0 1-1v-3h3a1 1 0 0 0 1-1V15a1 1 0 0 0-1-1ZM22 32h-1.47a.386.386 0 0 1-.39-.39 2.372 2.372 0 0 0-1.661-2.291 12.259 12.259 0 0 1-1.979-.827 2.413 2.413 0 0 0-2.712.36.9.9 0 0 0-.105.091.388.388 0 0 1-.546 0l-2.074-2.074a.389.389 0 0 1-.006-.552 1.043 1.043 0 0 0 .088-.1 2.418 2.418 0 0 0 .359-2.724 12.111 12.111 0 0 1-.817-1.954 2.378 2.378 0 0 0-2.3-1.678A.386.386 0 0 1 8 19.47v-2.94a.386.386 0 0 1 .39-.39 2.372 2.372 0 0 0 2.291-1.661 12.259 12.259 0 0 1 .827-1.979 2.415 2.415 0 0 0-.36-2.712.9.9 0 0 0-.091-.105.387.387 0 0 1 0-.546l2.074-2.074a.39.39 0 0 1 .552-.006 1.043 1.043 0 0 0 .1.088 2.417 2.417 0 0 0 2.719.361 12.8 12.8 0 0 1 1.984-.828A2.368 2.368 0 0 0 20.14 4.39a.386.386 0 0 1 .39-.39h2.94a.386.386 0 0 1 .39.39 2.372 2.372 0 0 0 1.661 2.291 12.259 12.259 0 0 1 1.979.827 2.415 2.415 0 0 0 2.712-.36.9.9 0 0 0 .105-.091.387.387 0 0 1 .546 0l2.074 2.074a.389.389 0 0 1 .006.552 1.043 1.043 0 0 0-.088.1 2.418 2.418 0 0 0-.359 2.724A11.864 11.864 0 0 1 33.143 14h-3.105A8.991 8.991 0 1 0 22 27Zm0-13v6a7 7 0 1 1 5.726-11H27a1 1 0 0 0-1 1v3h-3a1 1 0 0 0-1 1Zm30 41H24V20h28Zm4-4h-2V19a1 1 0 0 0-1-1H28v-2h28Z" fill="#0f585b" opacity="1" data-original="#000000" class=""></path><path d="M33 41h10a1 1 0 0 0 1-1v-8a3 3 0 0 0-3-3h-.382a4 4 0 1 0-5.236 0H35a3 3 0 0 0-3 3v8a1 1 0 0 0 1 1Zm5-17a2 2 0 1 1-2 2 2 2 0 0 1 2-2Zm-4 8a1 1 0 0 1 1-1h6a1 1 0 0 1 1 1v7h-8ZM33.88 52.742l-.63 3.673a1 1 0 0 0 1.45 1.054l3.3-1.735 3.3 1.735a1 1 0 0 0 1.452-1.054l-.63-3.673 2.668-2.6a1 1 0 0 0-.555-1.706l-3.689-.536-1.646-3.342a1.041 1.041 0 0 0-1.794 0L35.454 47.9l-3.687.536a1 1 0 0 0-.555 1.706Zm2.382-2.942a1 1 0 0 0 .753-.548l.985-2 .985 2a1 1 0 0 0 .753.548l2.2.32-1.594 1.553a1 1 0 0 0-.288.886l.377 2.193-1.971-1.036a1 1 0 0 0-.93 0l-1.971 1.036.377-2.193a1 1 0 0 0-.288-.886l-1.594-1.553Z" fill="#0f585b" opacity="1" data-original="#000000" class=""></path></g></svg>
