<svg xmlns="http://www.w3.org/2000/svg" version="1.1" xmlns:xlink="http://www.w3.org/1999/xlink" width="83" height="78" x="0" y="0" viewBox="0 0 468 468" style="enable-background:new 0 0 83 78" xml:space="preserve" class=""><g><g fill="#4f4f4f"><path d="M66.968 136.102a6.999 6.999 0 0 1-6.997-7V67c0-3.866 3.132-7 6.997-7h62.073c3.864 0 6.997 3.134 6.997 7s-3.132 7-6.997 7H73.965v55.102c0 3.866-3.133 7-6.997 7zM400.809 136.102a6.999 6.999 0 0 1-6.997-7V74h-55.076c-3.864 0-6.997-3.134-6.997-7s3.132-7 6.997-7h62.073a6.999 6.999 0 0 1 6.997 7v62.102a7 7 0 0 1-6.997 7zM129.041 407.999H66.968a6.999 6.999 0 0 1-6.997-7v-62.102a6.998 6.998 0 1 1 13.994 0v55.102h55.076c3.864 0 6.997 3.134 6.997 7s-3.133 7-6.997 7z" fill="#0f585b" opacity="1" data-original="#4f4f4f" class=""></path></g><path fill="#0f585b" d="M467.894 340.542V226.745c0-15.51-12.591-28.128-28.067-28.128a27.867 27.867 0 0 0-15.568 4.734c-3.773-11.083-14.262-19.075-26.578-19.075a27.847 27.847 0 0 0-15.075 4.412c-3.277-11.888-14.165-20.642-27.063-20.642-5.123 0-9.93 1.384-14.068 3.796v-39.716c0-15.51-12.591-28.128-28.067-28.128-15.475 0-28.066 12.618-28.066 28.128v130.099l-3.498-6.256c-11.458-20.492-37.138-28.912-58.458-19.167-8.361 3.619-12.11 14.457-7.787 22.479 12.03 22.916 22.618 44.325 31.621 70.584 10.468 29.765 28.813 47.762 42.361 57.618 7.127 5.188 11.383 13.545 11.383 22.357l-.001 51.157c-.074 3.76 3.239 7.074 6.997 7h138.211a6.999 6.999 0 0 0 6.997-7v-52.806c-.742-23.815 16.328-43.612 14.726-67.649zm-28.719 67.651v.361H314.919c-.4-12.798-6.72-24.833-17.107-32.393-11.939-8.688-28.118-24.577-37.39-50.942-9.215-26.855-20.052-48.877-32.373-72.331-.562-1.659-.311-2.399 1.152-3.352 14.745-6.738 32.505-.909 40.432 13.267l16.601 29.689a6.997 6.997 0 0 0 13.103-3.418V132.127c0-7.79 6.313-14.128 14.073-14.128s14.072 6.338 14.072 14.128v118.97a6.998 6.998 0 1 0 13.994 0V196.17c0-7.787 6.311-14.123 14.079-14.123 7.756 0 14.066 6.336 14.066 14.123v54.927a6.998 6.998 0 1 0 13.994 0v-38.699c0-7.786 6.311-14.121 14.067-14.121 7.763 0 14.079 6.344 14.079 14.142l.001 38.681a6.998 6.998 0 0 0 6.998 6.998 7 7 0 0 0 6.996-7v-24.352c0-7.79 6.312-14.128 14.072-14.128s14.073 6.338 14.073 14.128v113.796c.742 23.816-16.328 43.612-14.726 67.651z" opacity="1" data-original="#4f4f4f" class=""></path><g fill="#4f4f4f"><path d="M7.027 136.102a6.999 6.999 0 0 1-6.998-7V7c0-3.866 3.133-7 6.998-7h92.07c3.865 0 6.998 3.134 6.998 7s-3.133 7-6.998 7H14.024v115.102c0 3.867-3.132 7-6.997 7z" fill="#0f585b" opacity="1" data-original="#4f4f4f" class=""></path><ellipse cx="129.087" cy="8" rx="7.997" ry="8" fill="#0f585b" opacity="1" data-original="#4f4f4f" class=""></ellipse></g><g fill="#4f4f4f"><path d="M460.838 136.102a6.999 6.999 0 0 1-6.998-7V14H338.778c-3.865 0-6.998-3.134-6.998-7s3.133-7 6.998-7h122.06a6.999 6.999 0 0 1 6.998 7v122.102a6.999 6.999 0 0 1-6.998 7zM129.057 468H6.998A6.999 6.999 0 0 1 0 461V338.897a6.999 6.999 0 1 1 13.996 0V454h115.062c3.865 0 6.998 3.134 6.998 7s-3.134 7-6.999 7z" fill="#0f585b" opacity="1" data-original="#4f4f4f" class=""></path></g></g></svg>
