<svg xmlns="http://www.w3.org/2000/svg" version="1.1" xmlns:xlink="http://www.w3.org/1999/xlink" width="83" height="78" x="0" y="0" viewBox="0 0 64 64" style="enable-background:new 0 0 83 78" xml:space="preserve" class=""><g><path d="M47 63a1 1 0 0 0 1-1v-7h9a1 1 0 0 0 1-1V2a1 1 0 0 0-1-1H17a1 1 0 0 0-1 1v7H7a1 1 0 0 0-1 1v52a1 1 0 0 0 1 1zM45 8a6 6 0 1 1-6 6 6.006 6.006 0 0 1 6-6zM18 3h38v50h-8V21.411A8 8 0 1 0 38.765 9H18zM8 11h29.589A7.989 7.989 0 0 0 45 22a8.047 8.047 0 0 0 1-.069V61H8z" fill="#0f585b" opacity="1" data-original="#000000" class=""></path><path d="M11 45h22a1 1 0 0 0 1-1V14a1 1 0 0 0-1-1H11a1 1 0 0 0-1 1v30a1 1 0 0 0 1 1zm1-30h20v28H12z" fill="#0f585b" opacity="1" data-original="#000000" class=""></path><path d="M25.305 26.723a5 5 0 1 0-6.61 0A8.005 8.005 0 0 0 14 34v6a1 1 0 0 0 1 1h14a1 1 0 0 0 1-1v-6a8.005 8.005 0 0 0-4.695-7.277zM19 23a3 3 0 1 1 3 3 3 3 0 0 1-3-3zm6.36 6.031L22 31.719l-3.36-2.688a5.991 5.991 0 0 1 6.72 0zM28 39H16v-5a5.959 5.959 0 0 1 1.188-3.569l4.187 3.35a1 1 0 0 0 1.25 0l4.187-3.35A5.959 5.959 0 0 1 28 34zM10 47h34v2H10zM10 51h34v2H10zM10 55h34v2H10zM44 13h2v5h-2zM44 10h2v2h-2zM36 28h8v2h-8zM36 32h8v2h-8zM36 36h8v2h-8zM36 40h8v2h-8z" fill="#0f585b" opacity="1" data-original="#000000" class=""></path></g></svg>
