<svg xmlns="http://www.w3.org/2000/svg" xmlns:xlink="http://www.w3.org/1999/xlink" xmlns:svgjs="http://svgjs.dev/svgjs" version="1.1" class="svg-animations " style="background-color: rgb(255, 255, 255);" viewBox="32.32 115 299.47 67.5"><svg viewBox="0 0 135.00657653808594 140.00709533691406" width="70" height="70" x="31.063999938964827" y="115" style="fill: rgb(15, 88, 91);"><svg xmlns="http://www.w3.org/2000/svg" width="135" height="135" viewBox="0 0 135 135">	<g clip-path="url(#clip0)">	<path d="M87.361 3.51701L67.4997 23.3641L47.6527 3.51701C42.9685 -1.16713 35.3087 -1.16713 30.6388 3.51701C25.9547 8.20115 25.9547 15.8609 30.6388 20.5308L58.9999 48.8919C63.6841 53.5761 71.3439 53.5761 76.0138 48.8919L104.375 20.5308C109.059 15.8467 109.059 8.18691 104.375 3.51701C99.6907 -1.15289 92.0452 -1.16713 87.361 3.51701Z"></path>	<path d="M47.6527 131.498L67.514 111.637L87.3754 131.498C92.0595 136.182 99.7193 136.182 104.389 131.498C109.073 126.814 109.073 119.154 104.389 114.484L76.0138 86.1088C71.3297 81.4247 63.6699 81.4247 59 86.1088L30.6247 114.47C25.9405 119.154 25.9405 126.814 30.6247 131.484C35.3088 136.154 42.9686 136.182 47.6527 131.498Z"></path>	<path d="M131.497 87.3619L111.636 67.5005L131.497 47.6392C136.181 42.9551 136.181 35.2953 131.497 30.6254C126.813 25.9413 119.153 25.9413 114.483 30.6254L86.1081 58.9865C81.4239 63.6707 81.4239 71.3304 86.1081 76.0003L114.469 104.376C119.153 109.06 126.813 109.06 131.483 104.376C136.153 99.6915 136.181 92.046 131.497 87.3619Z"></path>	<path d="M3.51652 47.6535L23.3778 67.5148L3.51652 87.3619C-1.16762 92.046 -1.16762 99.7058 3.51652 104.376C8.20066 109.06 15.8604 109.06 20.5303 104.376L48.8914 76.0146C53.5756 71.3304 53.5756 63.6707 48.8914 59.0007L20.5303 30.6254C15.8462 25.9413 8.18642 25.9413 3.51652 30.6254C-1.15338 35.3095 -1.16762 42.9693 3.51652 47.6535Z"></path>	</g>	</svg></svg><svg x="146.91479187011717" y="134.37826251983643" style="fill: rgb(15, 88, 91);"><path d="M0.82 8.68L0.82 8.68L0.67 6.25Q0.67 5.63 0.64 4.93L0.64 4.93Q0.53 3.17 0.88 2.96L0.88 2.96Q1.20 2.79 1.33 2.58Q1.46 2.38 1.63 2.38Q1.79 2.38 2.12 2.36Q2.46 2.35 2.84 2.38L2.84 2.38Q3.75 2.44 4.06 2.64Q4.37 2.85 4.75 2.91Q5.13 2.96 5.52 2.98Q5.92 2.99 6.27 2.98Q6.62 2.96 6.90 2.96Q7.18 2.96 7.27 3.02L7.27 3.02Q7.62 3.17 7.87 3.14Q8.12 3.11 8.35 3.36Q8.58 3.61 8.67 3.74Q8.76 3.87 9.24 3.93Q9.73 3.99 10.05 4.03Q10.37 4.08 10.69 4.31Q11.02 4.55 11.22 4.61Q11.43 4.66 11.67 4.99Q11.92 5.31 12.01 5.46Q12.10 5.60 12.13 5.95L12.13 5.95Q12.16 6.77 12.54 7.15Q12.92 7.54 12.96 7.89Q13.01 8.24 13.04 8.71Q13.07 9.18 13.14 9.86Q13.21 10.55 12.85 11.39Q12.48 12.22 12.11 12.54Q11.75 12.87 11.51 13.32Q11.28 13.78 11.18 14.35Q11.07 14.92 10.55 15.50L10.55 15.50Q10.22 15.91 10.03 16.00Q9.84 16.09 9.67 16.19Q9.49 16.29 9.26 16.46Q9.02 16.62 8.73 16.73L8.73 16.73Q8.00 17.09 7.47 16.88L7.47 16.88Q7.15 17.03 6.84 17.07Q6.53 17.12 6.21 17.20L6.21 17.20Q5.54 17.44 5.46 17.99Q5.39 18.55 5.58 19.14Q5.77 19.72 5.80 20.13L5.80 20.13Q5.95 21.45 5.16 22.42L5.16 22.42Q4.66 23.00 4.51 23.66Q4.37 24.32 3.98 24.56L3.98 24.56Q3.34 25.14 2.75 24.29L2.75 24.29Q2.67 24.21 2.37 24.06L2.37 24.06Q1.96 23.82 1.86 23.31Q1.76 22.80 1.76 22.27Q1.76 21.74 1.67 21.28Q1.58 20.81 1.46 20.28L1.46 20.28Q1.20 18.84 1.20 18.32Q1.20 17.79 1.19 17.23Q1.17 16.68 1.33 16.24Q1.49 15.80 1.46 15.65Q1.44 15.50 1.52 15.31Q1.61 15.12 1.73 14.84Q1.85 14.57 1.90 14.27L1.90 14.27Q2.02 13.66 1.55 13.22L1.55 13.22Q1.03 12.72 1.03 12.16L1.03 12.16L1.03 11.99Q1.11 10.99 1.05 10.64L1.05 10.64Q0.82 9.64 0.82 8.68ZM5.51 10.01Q5.57 10.14 5.61 10.36Q5.65 10.58 5.70 10.99Q5.74 11.40 5.70 11.86Q5.65 12.31 5.63 12.69L5.63 12.69Q5.57 13.66 5.86 13.78L5.86 13.78Q6.18 13.92 6.91 12.98L6.91 12.98Q7.71 12.02 8.23 10.64L8.23 10.64Q8.50 9.91 8.26 9.56L8.26 9.56Q7.76 8.97 7.85 8.50L7.85 8.50Q7.88 8.47 7.85 8.36L7.85 8.36Q7.79 8.30 7.71 8.19Q7.62 8.09 7.44 8.00L7.44 8.00Q6.77 7.74 6.23 7.99Q5.68 8.24 5.52 8.71Q5.36 9.18 5.38 9.42Q5.39 9.67 5.42 9.78Q5.45 9.88 5.51 10.01ZM23.19 19.56Q23.32 19.78 23.31 20.09Q23.29 20.40 23.25 20.72Q23.20 21.04 23.26 21.44Q23.32 21.83 23.36 22.20Q23.41 22.56 23.41 22.89Q23.41 23.21 23.22 23.43Q23.03 23.65 22.65 23.79Q22.27 23.94 21.80 24L21.80 24Q20.71 24.09 19.92 23.68L19.92 23.68Q19.19 23.30 18.53 23.44Q17.87 23.59 17.50 23.72Q17.14 23.85 16.66 23.97Q16.17 24.09 15.70 24.07Q15.23 24.06 14.91 23.55Q14.59 23.03 14.56 22.36Q14.53 21.69 14.77 20.98Q15 20.28 14.94 19.39Q14.88 18.49 14.82 17.86Q14.77 17.23 14.82 16.76L14.82 16.76Q14.97 15.65 14.56 15.21L14.56 15.21Q14.24 14.83 14.24 14.32Q14.24 13.80 14.27 13.48Q14.30 13.16 14.47 12.93Q14.65 12.69 14.69 12.53Q14.74 12.37 14.68 11.96L14.68 11.96Q14.44 10.29 14.52 9.38Q14.59 8.47 14.49 7.81Q14.38 7.15 14.44 6.73Q14.50 6.30 14.38 6.01Q14.27 5.72 14.31 5.59Q14.36 5.46 14.30 5.21Q14.24 4.96 14.18 4.66L14.18 4.66Q14.00 3.79 14.08 3.46Q14.15 3.14 14.37 2.72Q14.59 2.29 14.91 2.20Q15.23 2.12 15.29 2.06Q15.35 2.00 15.59 1.91L15.59 1.91Q16.20 1.73 16.49 1.88Q16.79 2.03 17.02 2.04Q17.26 2.06 17.50 2.04Q17.75 2.03 17.99 1.97L17.99 1.97L18.34 1.91Q18.96 1.73 19.28 1.97L19.28 1.97Q19.48 2.17 19.57 2.29Q19.66 2.41 19.60 2.64L19.60 2.64Q19.54 2.88 19.66 3.02Q19.78 3.17 19.75 3.45Q19.72 3.73 19.73 3.86Q19.75 3.99 19.78 4.14L19.78 4.14Q19.83 4.43 19.72 4.84Q19.60 5.25 19.57 5.38Q19.54 5.51 19.54 5.63L19.54 5.63Q19.54 6.01 19.44 6.35Q19.34 6.69 19.32 6.91Q19.31 7.13 19.31 7.42L19.31 7.42L19.31 8.06Q19.31 8.41 19.26 8.94Q19.22 9.47 19.17 10.19Q19.13 10.90 19.10 11.64L19.10 11.64Q18.98 13.57 18.81 14.10L18.81 14.10Q18.34 14.36 18.66 15.33L18.66 15.33L18.87 15.94Q19.16 16.82 19.16 17.67Q19.16 18.52 19.01 19.31L19.01 19.31Q19.86 19.78 20.21 19.81L20.21 19.81Q21.06 19.93 21.75 19.58Q22.44 19.22 22.75 19.28Q23.06 19.34 23.19 19.56ZM24.58 18.49L24.58 18.49L24.55 17.00Q24.55 16.59 24.58 16.24L24.58 16.24Q24.61 15.86 24.52 15.30L24.52 15.30Q24.38 14.33 24.39 13.88Q24.40 13.42 24.39 13.15Q24.38 12.87 24.32 12.63L24.32 12.63Q24.23 12.28 23.89 11.52Q23.55 10.76 23.55 9.88Q23.55 9 23.94 8.47L23.94 8.47Q24.29 7.95 24.20 7.39Q24.11 6.83 24.07 6.20Q24.02 5.57 24.05 4.91Q24.08 4.25 24.35 3.64L24.35 3.64Q24.99 2.14 26.92 2.20L26.92 2.20Q28.13 2.23 29.00 2.44Q29.88 2.64 30.29 2.61Q30.70 2.58 31.55 2.32L31.55 2.32Q32.78 1.85 33.52 2.38L33.52 2.38Q33.72 2.53 33.91 2.60Q34.10 2.67 34.25 2.82L34.25 2.82Q34.75 3.38 34.54 5.25L34.54 5.25Q34.48 5.81 34.42 6.36L34.42 6.36Q34.28 7.68 34.42 8.33Q34.57 8.97 34.58 9.45Q34.60 9.94 34.54 10.32L34.54 10.32Q34.37 11.17 33.87 11.17L33.87 11.17Q33.43 11.14 33.24 10.89Q33.05 10.64 32.93 10.33Q32.81 10.03 32.68 9.78Q32.55 9.53 32.11 9.53L32.11 9.53Q30.82 9.53 30.40 9.25Q29.97 8.97 29.65 8.93Q29.33 8.88 29.03 9L29.03 9Q28.42 9.26 28.32 9.97Q28.21 10.67 28.18 11.20Q28.15 11.72 28.18 12.16L28.18 12.16Q28.24 13.19 28.58 13.32Q28.92 13.45 29.15 13.35Q29.38 13.25 29.62 13.10L29.62 13.10Q30.32 12.63 31.07 12.65Q31.82 12.66 32.18 13.25Q32.55 13.83 32.49 14.38Q32.43 14.92 32.39 15.45Q32.34 15.97 32.26 16.44L32.26 16.44Q31.85 18.26 30.56 17.14L30.56 17.14Q28.89 17.03 28.48 17.55L28.48 17.55Q28.39 17.70 28.30 18.17Q28.21 18.64 28.27 19.17L28.27 19.17Q28.42 20.54 29.59 20.63L29.59 20.63Q30.35 20.69 30.98 20.43Q31.61 20.16 31.82 19.84L31.82 19.84Q31.99 19.49 32.26 19.44Q32.52 19.40 32.72 19.36Q32.93 19.31 33.13 19.31Q33.34 19.31 33.54 19.37L33.54 19.37Q34.07 19.55 34.17 20.19Q34.28 20.84 34.04 21.36Q33.81 21.89 33.74 22.32Q33.66 22.74 33.60 22.95Q33.54 23.15 33.27 23.46Q32.99 23.77 32.83 23.97Q32.67 24.18 32.31 23.88L32.31 23.88Q31.67 23.38 30.76 24.47L30.76 24.47Q30.53 24.79 30.26 24.94Q30 25.08 29.44 25.05L29.44 25.05Q28.89 25.03 28.56 24.76Q28.24 24.50 27.98 24.23L27.98 24.23Q27.54 23.68 26.46 23.82L26.46 23.82Q25.81 23.91 25.40 23.27L25.40 23.27Q25.31 23.18 25.27 22.95Q25.22 22.71 25.17 22.42L25.17 22.42Q24.96 21.66 24.80 21.44Q24.64 21.22 24.62 20.87Q24.61 20.51 24.55 20.12Q24.49 19.72 24.46 19.53Q24.43 19.34 24.51 19.08Q24.58 18.81 24.58 18.49ZM46.80 6.92Q46.88 7.10 46.85 7.30Q46.82 7.51 46.44 8.00Q46.05 8.50 45.98 9.07Q45.91 9.64 45.94 10.01Q45.97 10.38 45.94 10.64L45.94 10.64Q45.91 11.29 45.23 11.52L45.23 11.52Q44.65 11.75 44.33 11.49Q44.00 11.23 43.80 10.80Q43.59 10.38 43.49 10.07Q43.39 9.76 43.15 9.73L43.15 9.73Q42.74 9.64 42.52 9.82Q42.30 10.00 42.19 10.11L42.19 10.11Q41.95 10.35 41.70 10.44Q41.46 10.52 41.31 10.61L41.31 10.61Q41.02 10.82 41.07 11.29L41.07 11.29Q41.19 12.19 43.10 14.04L43.10 14.04Q43.45 14.39 43.93 14.80Q44.41 15.21 44.88 15.74L44.88 15.74Q45.94 17.00 46.05 18.58L46.05 18.58Q46.17 20.19 45.59 21.39L45.59 21.39Q45.12 22.36 44.47 22.65L44.47 22.65Q43.97 22.92 43.80 23.34Q43.62 23.77 43.54 23.96Q43.45 24.15 43.17 24.28Q42.89 24.41 42.54 24.38Q42.19 24.35 41.88 24.25Q41.57 24.15 41.32 24.01Q41.07 23.88 40.91 23.85Q40.75 23.82 40.61 23.96Q40.46 24.09 40.31 24.23L40.31 24.23Q39.87 24.67 39.52 24.57Q39.17 24.47 38.70 24.23Q38.23 24 37.79 23.65L37.79 23.65Q36.21 22.42 36.71 21.13L36.71 21.13Q37.03 20.28 37.43 19.93Q37.82 19.58 38.06 19.58L38.06 19.58Q38.44 19.58 38.57 19.85Q38.70 20.13 38.79 20.32Q38.88 20.51 38.99 20.63Q39.11 20.75 39.36 20.87Q39.61 20.98 39.90 21.01L39.90 21.01Q40.63 21.07 41.02 20.43L41.02 20.43Q41.40 19.78 41.31 19.02L41.31 19.02Q41.10 17.64 40.72 17.85L40.72 17.85Q40.40 18.05 39.93 17.86Q39.46 17.67 39.43 17.36Q39.40 17.06 39.32 16.76Q39.23 16.47 39.11 16.21L39.11 16.21Q38.85 15.53 38.64 15.47L38.64 15.47Q38.41 15.42 38.01 15.42Q37.62 15.42 37.15 14.90Q36.68 14.39 36.47 13.61Q36.27 12.84 36.12 12.27Q35.98 11.70 35.86 11.37Q35.74 11.05 35.65 10.70L35.65 10.70Q35.36 9.59 35.63 7.83L35.63 7.83Q35.80 6.80 36.27 6.03Q36.74 5.25 37.32 4.49L37.32 4.49Q38.44 2.99 39.38 2.41Q40.31 1.82 40.81 2.29L40.81 2.29Q41.25 2.67 41.76 2.60Q42.28 2.53 42.57 2.44L42.57 2.44L43.10 2.32Q43.59 2.20 44.11 2.35Q44.62 2.50 45.03 3.35L45.03 3.35Q45.23 3.79 45.45 4.11Q45.67 4.43 45.88 4.72L45.88 4.72Q46.32 5.43 46.39 5.88Q46.46 6.33 46.60 6.54Q46.73 6.74 46.80 6.92ZM57.95 11.49Q57.36 12.69 57.14 13.25Q56.92 13.80 56.92 14.08Q56.92 14.36 57.11 14.84Q57.30 15.33 57.60 15.93Q57.89 16.53 58.26 17.26Q58.62 17.99 58.89 18.62Q59.15 19.25 59.25 19.59Q59.36 19.93 59.41 20.25L59.41 20.25Q59.47 20.81 59.37 21.51Q59.27 22.21 59.31 22.64Q59.36 23.06 59.34 23.41Q59.33 23.77 59.21 23.99Q59.09 24.21 58.52 24.25Q57.95 24.29 57.47 23.85Q56.98 23.41 56.65 22.81Q56.31 22.21 56.09 21.63Q55.87 21.04 55.52 20.66Q55.17 20.28 54.92 19.55Q54.67 18.81 54.49 18.14Q54.32 17.47 54.11 16.97Q53.91 16.47 53.54 16.41Q53.17 16.35 53.07 16.59Q52.97 16.82 52.98 17.22Q53.00 17.61 53.06 18.10Q53.12 18.58 53.13 19.15Q53.14 19.72 53.07 20.22Q53.00 20.72 52.60 21.17Q52.21 21.63 52.08 22.10Q51.94 22.56 51.86 23.00Q51.77 23.44 51.62 23.77Q51.47 24.09 51.12 24.09L51.12 24.09Q50.42 24.12 49.83 23.30Q49.25 22.48 49.16 21.16L49.16 21.16Q49.07 20.40 48.72 20.16L48.72 20.16Q48.40 19.96 48.52 18.55L48.52 18.55Q48.54 18.17 48.63 17.88L48.63 17.88Q48.81 16.97 48.62 15.28Q48.43 13.60 48.37 13.29Q48.31 12.98 48.24 12.56Q48.16 12.13 48.12 11.65Q48.08 11.17 48.08 10.66Q48.08 10.14 48.21 9.57Q48.34 9 48.35 8.62Q48.37 8.24 48.34 7.95L48.34 7.95Q48.19 7.01 48.24 6.44Q48.28 5.87 48.19 5.22Q48.11 4.58 48.08 3.96Q48.05 3.35 48.18 2.83Q48.31 2.32 48.71 2.09Q49.10 1.85 49.39 1.90Q49.69 1.94 50.01 2.03L50.01 2.03Q50.98 2.29 51.36 2.23L51.36 2.23Q53.58 1.68 53.14 5.07L53.14 5.07Q53.06 5.63 52.97 6.07L52.97 6.07Q52.76 7.13 52.85 7.65L52.85 7.65Q52.91 8.00 52.92 8.41Q52.94 8.82 52.97 9.18L52.97 9.18Q53.03 10.00 53.35 10.00L53.35 10.00Q53.85 10.00 54.61 8.30L54.61 8.30Q54.79 7.92 54.86 7.68Q54.93 7.45 55.06 7.13Q55.20 6.80 55.37 6.48L55.37 6.48Q55.84 5.69 56.37 5.48L56.37 5.48Q55.99 4.66 56.24 4.06Q56.48 3.46 56.63 3.17Q56.78 2.88 56.95 2.70L56.95 2.70Q57.28 2.38 57.91 2.55Q58.54 2.73 59.00 2.58Q59.47 2.44 59.93 2.28Q60.38 2.12 60.82 2.04Q61.26 1.97 61.57 2.23Q61.88 2.50 61.95 2.83Q62.02 3.17 61.93 3.55L61.93 3.55Q61.76 4.34 61.05 5.10L61.05 5.10Q60.64 6.71 59.71 7.65L59.71 7.65Q59.59 9.03 58.83 9.97L58.83 9.97Q58.54 10.29 57.95 11.49ZM66.53 18.73L66.53 18.73L66.62 20.13Q66.68 21.28 66.04 21.63L66.04 21.63Q65.86 22.80 65.86 23.71L65.86 23.71Q65.65 24.12 65.19 24.21L65.19 24.21Q64.31 24.32 64.04 23.74L64.04 23.74Q63.66 23.00 63.43 22.95L63.43 22.95Q63.37 22.92 63.24 22.90Q63.11 22.89 62.93 22.81Q62.75 22.74 62.80 22.36Q62.84 21.98 62.78 21.74Q62.72 21.51 62.64 21.25L62.64 21.25Q62.40 20.48 62.40 19.78L62.40 19.78Q62.40 19.28 62.42 18.87Q62.43 18.46 62.43 18.05L62.43 18.05Q62.37 16.73 62.09 15.80Q61.82 14.86 61.73 14.57L61.73 14.57Q61.55 13.92 61.55 13.34L61.55 13.34Q61.55 12.98 61.64 12.82Q61.73 12.66 61.82 12.49L61.82 12.49Q62.05 12.05 62.01 11.46Q61.96 10.88 61.92 10.27Q61.88 9.67 61.83 8.93Q61.79 8.18 61.74 7.33Q61.70 6.48 61.70 5.69L61.70 5.69Q61.70 3.11 62.34 2.79L62.34 2.79Q62.46 2.73 62.62 2.66Q62.78 2.58 63.02 2.44Q63.25 2.29 63.44 2.14Q63.63 2.00 63.84 1.91L63.84 1.91Q64.22 1.73 64.76 1.95Q65.30 2.17 65.54 2.25Q65.77 2.32 66.01 2.36Q66.24 2.41 66.55 2.39Q66.86 2.38 67.43 2.36Q68.00 2.35 68.66 2.38Q69.32 2.41 69.93 2.55L69.93 2.55Q71.92 2.96 73.01 4.75L73.01 4.75Q73.48 5.54 73.51 6.16Q73.54 6.77 73.58 7.34Q73.62 7.92 73.80 8.63Q73.97 9.35 73.92 10.00Q73.86 10.64 73.78 10.89Q73.71 11.14 73.62 11.34L73.62 11.34Q73.48 11.78 73.51 12.25L73.51 12.25Q73.56 13.01 73.39 13.44Q73.21 13.86 73.04 14.30L73.04 14.30Q72.54 15.39 71.95 15.53L71.95 15.53Q71.63 15.59 71.43 15.65Q71.22 15.71 71.19 15.91L71.19 15.91Q71.13 16.06 71.37 16.25Q71.60 16.44 71.85 16.82Q72.10 17.20 72.28 17.32Q72.45 17.44 72.60 17.47L72.60 17.47Q73.04 17.55 73.15 17.67L73.15 17.67Q73.42 17.99 73.55 18.20Q73.68 18.40 73.62 18.81L73.62 18.81Q73.56 19.22 73.62 19.66Q73.68 20.10 73.74 20.59Q73.80 21.07 73.75 21.39Q73.71 21.71 73.71 21.86L73.71 21.86L73.83 22.62Q73.83 23.33 73.42 23.77Q73.01 24.21 72.77 24.26Q72.54 24.32 72.33 24.23Q72.13 24.15 71.98 24.01Q71.84 23.88 71.75 23.84Q71.66 23.79 71.53 23.78Q71.40 23.77 71.25 23.71L71.25 23.71Q70.72 23.56 70.34 21.66L70.34 21.66Q70.14 20.72 69.64 20.46L69.64 20.46Q68.88 20.07 68.82 19.40L68.82 19.40Q68.79 19.08 68.76 18.52L68.76 18.52Q68.64 17.41 68.00 17.14L68.00 17.14Q67.68 17.03 67.41 17.03Q67.15 17.03 66.88 17.32L66.88 17.32Q66.53 17.76 66.53 18.73ZM68.00 13.16Q68.38 12.81 68.75 12.53Q69.11 12.25 69.36 11.80Q69.61 11.34 69.76 10.88L69.76 10.88Q69.99 10.00 69.92 9.25Q69.84 8.50 69.74 8.25Q69.64 8.00 69.16 8.00Q68.67 8.00 68.19 7.77Q67.71 7.54 67.65 7.21L67.65 7.21Q67.59 6.51 67.21 6.71L67.21 6.71Q67.00 6.83 66.91 6.93Q66.83 7.04 66.77 7.54L66.77 7.54Q66.68 8.56 66.78 9.15Q66.88 9.73 66.91 9.92Q66.94 10.11 66.96 10.33Q66.97 10.55 66.99 10.83Q67.00 11.11 67.05 11.71Q67.09 12.31 67.06 12.72Q67.03 13.13 67.15 13.57L67.15 13.57Q67.62 13.51 68.00 13.16ZM76.14 18.49L76.14 18.49L76.11 17.00Q76.11 16.59 76.14 16.24L76.14 16.24Q76.17 15.86 76.08 15.30L76.08 15.30Q75.94 14.33 75.95 13.88Q75.97 13.42 75.95 13.15Q75.94 12.87 75.88 12.63L75.88 12.63Q75.79 12.28 75.45 11.52Q75.12 10.76 75.12 9.88Q75.12 9 75.50 8.47L75.50 8.47Q75.85 7.95 75.76 7.39Q75.67 6.83 75.63 6.20Q75.59 5.57 75.62 4.91Q75.64 4.25 75.91 3.64L75.91 3.64Q76.55 2.14 78.49 2.20L78.49 2.20Q79.69 2.23 80.57 2.44Q81.45 2.64 81.86 2.61Q82.27 2.58 83.12 2.32L83.12 2.32Q84.35 1.85 85.08 2.38L85.08 2.38Q85.28 2.53 85.47 2.60Q85.66 2.67 85.81 2.82L85.81 2.82Q86.31 3.38 86.10 5.25L86.10 5.25Q86.04 5.81 85.99 6.36L85.99 6.36Q85.84 7.68 85.99 8.33Q86.13 8.97 86.15 9.45Q86.16 9.94 86.10 10.32L86.10 10.32Q85.93 11.17 85.43 11.17L85.43 11.17Q84.99 11.14 84.80 10.89Q84.61 10.64 84.49 10.33Q84.38 10.03 84.24 9.78Q84.11 9.53 83.67 9.53L83.67 9.53Q82.38 9.53 81.96 9.25Q81.53 8.97 81.21 8.93Q80.89 8.88 80.60 9L80.60 9Q79.98 9.26 79.88 9.97Q79.78 10.67 79.75 11.20Q79.72 11.72 79.75 12.16L79.75 12.16Q79.80 13.19 80.14 13.32Q80.48 13.45 80.71 13.35Q80.95 13.25 81.18 13.10L81.18 13.10Q81.88 12.63 82.63 12.65Q83.38 12.66 83.75 13.25Q84.11 13.83 84.05 14.38Q83.99 14.92 83.95 15.45Q83.91 15.97 83.82 16.44L83.82 16.44Q83.41 18.26 82.12 17.14L82.12 17.14Q80.45 17.03 80.04 17.55L80.04 17.55Q79.95 17.70 79.86 18.17Q79.78 18.64 79.83 19.17L79.83 19.17Q79.98 20.54 81.15 20.63L81.15 20.63Q81.91 20.69 82.54 20.43Q83.17 20.16 83.38 19.84L83.38 19.84Q83.55 19.49 83.82 19.44Q84.08 19.40 84.29 19.36Q84.49 19.31 84.70 19.31Q84.90 19.31 85.11 19.37L85.11 19.37Q85.63 19.55 85.74 20.19Q85.84 20.84 85.61 21.36Q85.37 21.89 85.30 22.32Q85.22 22.74 85.17 22.95Q85.11 23.15 84.83 23.46Q84.55 23.77 84.39 23.97Q84.23 24.18 83.88 23.88L83.88 23.88Q83.23 23.38 82.32 24.47L82.32 24.47Q82.09 24.79 81.83 24.94Q81.56 25.08 81.01 25.05L81.01 25.05Q80.45 25.03 80.13 24.76Q79.80 24.50 79.54 24.23L79.54 24.23Q79.10 23.68 78.02 23.82L78.02 23.82Q77.37 23.91 76.96 23.27L76.96 23.27Q76.88 23.18 76.83 22.95Q76.79 22.71 76.73 22.42L76.73 22.42Q76.52 21.66 76.36 21.44Q76.20 21.22 76.19 20.87Q76.17 20.51 76.11 20.12Q76.05 19.72 76.03 19.53Q76.00 19.34 76.07 19.08Q76.14 18.81 76.14 18.49ZM98.36 6.92Q98.44 7.10 98.41 7.30Q98.38 7.51 98.00 8.00Q97.62 8.50 97.54 9.07Q97.47 9.64 97.50 10.01Q97.53 10.38 97.50 10.64L97.50 10.64Q97.47 11.29 96.80 11.52L96.80 11.52Q96.21 11.75 95.89 11.49Q95.57 11.23 95.36 10.80Q95.16 10.38 95.05 10.07Q94.95 9.76 94.72 9.73L94.72 9.73Q94.31 9.64 94.09 9.82Q93.87 10.00 93.75 10.11L93.75 10.11Q93.52 10.35 93.27 10.44Q93.02 10.52 92.87 10.61L92.87 10.61Q92.58 10.82 92.64 11.29L92.64 11.29Q92.75 12.19 94.66 14.04L94.66 14.04Q95.01 14.39 95.49 14.80Q95.98 15.21 96.45 15.74L96.45 15.74Q97.50 17.00 97.62 18.58L97.62 18.58Q97.73 20.19 97.15 21.39L97.15 21.39Q96.68 22.36 96.04 22.65L96.04 22.65Q95.54 22.92 95.36 23.34Q95.19 23.77 95.10 23.96Q95.01 24.15 94.73 24.28Q94.45 24.41 94.10 24.38Q93.75 24.35 93.44 24.25Q93.13 24.15 92.89 24.01Q92.64 23.88 92.48 23.85Q92.31 23.82 92.17 23.96Q92.02 24.09 91.88 24.23L91.88 24.23Q91.44 24.67 91.08 24.57Q90.73 24.47 90.26 24.23Q89.79 24 89.36 23.65L89.36 23.65Q87.77 22.42 88.27 21.13L88.27 21.13Q88.59 20.28 88.99 19.93Q89.38 19.58 89.62 19.58L89.62 19.58Q90 19.58 90.13 19.85Q90.26 20.13 90.35 20.32Q90.44 20.51 90.56 20.63Q90.67 20.75 90.92 20.87Q91.17 20.98 91.46 21.01L91.46 21.01Q92.20 21.07 92.58 20.43L92.58 20.43Q92.96 19.78 92.87 19.02L92.87 19.02Q92.67 17.64 92.29 17.85L92.29 17.85Q91.96 18.05 91.49 17.86Q91.03 17.67 91.00 17.36Q90.97 17.06 90.88 16.76Q90.79 16.47 90.67 16.21L90.67 16.21Q90.41 15.53 90.21 15.47L90.21 15.47Q89.97 15.42 89.58 15.42Q89.18 15.42 88.71 14.90Q88.24 14.39 88.04 13.61Q87.83 12.84 87.69 12.27Q87.54 11.70 87.42 11.37Q87.30 11.05 87.22 10.70L87.22 10.70Q86.92 9.59 87.19 7.83L87.19 7.83Q87.36 6.80 87.83 6.03Q88.30 5.25 88.89 4.49L88.89 4.49Q90 2.99 90.94 2.41Q91.88 1.82 92.37 2.29L92.37 2.29Q92.81 2.67 93.33 2.60Q93.84 2.53 94.13 2.44L94.13 2.44L94.66 2.32Q95.16 2.20 95.67 2.35Q96.18 2.50 96.59 3.35L96.59 3.35Q96.80 3.79 97.02 4.11Q97.24 4.43 97.44 4.72L97.44 4.72Q97.88 5.43 97.95 5.88Q98.03 6.33 98.16 6.54Q98.29 6.74 98.36 6.92ZM104.88 6.80L104.88 6.80L104.74 13.45Q104.74 17.88 105.97 17.64L105.97 17.64Q107.02 17.47 106.93 13.92L106.93 13.92Q106.93 12.87 107.09 12.56Q107.26 12.25 107.31 12.05L107.31 12.05Q107.46 11.46 107.37 10.49L107.37 10.49Q107.31 9.88 107.17 8.65Q107.02 7.42 106.90 6.11Q106.79 4.81 106.79 3.76Q106.79 2.70 107.01 2.44Q107.23 2.17 107.56 2.13Q107.90 2.09 108.27 2.13Q108.63 2.17 108.97 2.26Q109.31 2.35 109.53 2.35Q109.75 2.35 110.05 2.28Q110.36 2.20 110.67 2.16Q110.98 2.12 111.25 2.12Q111.53 2.12 111.77 2.32Q112.00 2.53 112.16 3.35Q112.32 4.17 112.40 5.28Q112.47 6.39 112.47 7.67Q112.47 8.94 112.44 10.08L112.44 10.08Q112.32 12.60 112.22 13.13Q112.12 13.66 111.97 13.89Q111.83 14.13 111.68 14.33L111.68 14.33Q111.39 14.74 111.59 15.50Q111.80 16.27 111.91 16.68L111.91 16.68Q112.12 17.41 111.94 17.99Q111.77 18.58 111.83 19.14L111.83 19.14Q111.97 20.63 111.47 21.28L111.47 21.28Q111.24 21.60 110.74 21.89L110.74 21.89Q109.75 22.45 109.28 23.24L109.28 23.24Q109.04 23.71 108.72 23.79L108.72 23.79Q108.54 23.85 108.19 23.81Q107.84 23.77 107.43 23.72Q107.02 23.68 106.64 23.63Q106.26 23.59 106.11 23.63Q105.97 23.68 105.85 23.81Q105.73 23.94 105.59 24.09L105.59 24.09Q104.79 24.88 103.95 23.91L103.95 23.91Q103.77 23.71 103.61 23.52Q103.45 23.33 103.30 23.22Q103.15 23.12 102.91 23.02Q102.66 22.92 102.36 22.71L102.36 22.71Q101.10 21.95 100.78 20.25L100.78 20.25Q100.61 19.43 100.49 18.13Q100.37 16.82 100.30 16.47Q100.22 16.12 99.93 15.69Q99.64 15.27 99.55 14.90Q99.46 14.54 99.52 14.13Q99.58 13.72 99.67 13.19L99.67 13.19Q99.90 11.78 99.79 10.73Q99.67 9.67 99.74 9.09Q99.81 8.50 99.76 8.34Q99.70 8.18 99.57 8.03Q99.43 7.89 99.49 7.42Q99.55 6.95 99.55 6.51Q99.55 6.07 99.55 5.60L99.55 5.60Q99.64 3.61 100.17 3.20L100.17 3.20Q100.61 2.88 101.07 2.85L101.07 2.85Q101.81 2.82 102.17 2.58Q102.54 2.35 102.77 2.20L102.77 2.20Q104.24 1.38 104.59 3.38L104.59 3.38Q104.82 4.61 104.88 6.80ZM128.23 23.79L128.23 23.79Q127.27 23.79 127.35 22.15L127.35 22.15Q127.41 21.04 127.37 20.19Q127.32 19.34 127.00 18.40L127.00 18.40Q126.68 17.47 126.56 16.71Q126.45 15.94 126.74 15.04L126.74 15.04Q127.15 13.75 126.80 12.16L126.80 12.16Q126.74 11.90 126.74 11.62Q126.74 11.34 126.71 11.11L126.71 11.11Q126.68 10.55 126.42 10.55L126.42 10.55Q126.18 10.55 126.09 10.96L126.09 10.96Q125.92 12.02 125.68 12.60L125.68 12.60Q125.04 14.13 125.19 15.12L125.19 15.12Q125.57 16.59 125.13 17.38L125.13 17.38Q124.92 17.76 124.63 17.94Q124.34 18.11 124.25 18.24Q124.16 18.38 124.17 18.71Q124.19 19.05 124.01 19.25Q123.84 19.46 123.79 19.69Q123.75 19.93 123.69 20.13L123.69 20.13Q123.54 20.66 123.05 20.60Q122.55 20.54 122.36 19.99Q122.17 19.43 122.07 18.70Q121.96 17.96 121.86 17.23Q121.76 16.50 121.48 16.12Q121.20 15.74 121.10 15.36Q121.00 14.98 120.94 14.57L120.94 14.57Q120.79 13.57 120.56 13.19L120.56 13.19Q120.35 12.84 120.23 11.87Q120.12 10.90 120.01 10.55Q119.91 10.20 119.65 10.20L119.65 10.20Q119.36 10.23 119.33 10.64Q119.30 11.05 119.41 11.31L119.41 11.31Q119.53 11.58 119.44 12.25Q119.36 12.93 119.47 13.42Q119.59 13.92 119.71 14.32Q119.82 14.71 119.91 15.15L119.91 15.15Q120.21 16.35 120.04 17.19Q119.88 18.02 119.85 18.48Q119.82 18.93 119.49 19.14Q119.15 19.34 119.08 19.56Q119.00 19.78 118.97 20.06Q118.95 20.34 118.92 20.65Q118.89 20.95 118.71 21.39L118.71 21.39Q118.33 22.33 118.46 22.77Q118.59 23.21 118.32 23.71Q118.04 24.21 117.52 24.25Q117.01 24.29 116.70 24.06Q116.40 23.82 116.16 23.47L116.16 23.47Q115.20 21.89 115.40 19.90L115.40 19.90Q115.43 19.46 115.47 19.02Q115.52 18.58 115.46 17.94L115.46 17.94Q115.37 16.35 114.73 15.45L114.73 15.45Q114.29 14.83 114.23 13.95L114.23 13.95Q114.08 12.43 114.40 11.78L114.40 11.78Q114.55 11.49 114.55 10.86Q114.55 10.23 114.54 9.95Q114.52 9.67 114.57 9.54Q114.61 9.41 114.62 9.07Q114.64 8.74 114.64 8.30L114.64 8.30Q114.61 7.51 114.43 6.85Q114.26 6.19 114.21 5.70Q114.17 5.22 114.23 4.75L114.23 4.75Q114.32 3.70 114.59 3.26Q114.87 2.82 115.11 2.75Q115.34 2.67 115.63 2.67Q115.93 2.67 116.13 2.57Q116.34 2.47 116.57 2.38L116.57 2.38Q117.07 2.17 117.54 2.35Q118.01 2.53 118.34 2.47Q118.68 2.41 118.97 2.32L118.97 2.32Q119.74 2.03 120.13 2.17Q120.53 2.32 120.85 2.67Q121.17 3.02 121.22 3.24Q121.26 3.46 121.35 3.55Q121.44 3.64 121.55 3.73L121.55 3.73Q121.79 3.93 121.79 4.37L121.79 4.37Q121.79 5.02 122.14 6.10L122.14 6.10Q122.75 8.15 123.31 8.33L123.31 8.33Q123.43 8.36 123.72 8.15Q124.01 7.95 124.13 7.54L124.13 7.54Q124.31 6.83 124.25 6.47Q124.19 6.10 124.35 5.89Q124.51 5.69 124.53 5.51Q124.54 5.34 124.57 5.04Q124.60 4.75 124.69 4.37L124.69 4.37Q124.92 3.40 125.36 2.91Q125.80 2.41 126.27 2.32Q126.74 2.23 127.22 2.28Q127.71 2.32 128.19 2.36Q128.67 2.41 129.17 2.20L129.17 2.20Q130.49 1.62 130.99 2.17L130.99 2.17Q131.13 2.32 131.26 2.38Q131.40 2.44 131.51 2.50L131.51 2.50Q131.75 2.67 131.79 3.04Q131.84 3.40 131.89 3.54Q131.95 3.67 132.01 3.79L132.01 3.79Q132.33 4.55 132.42 6.42L132.42 6.42Q132.51 9.50 132.30 9.94L132.30 9.94Q132.51 11.14 132.10 11.64L132.10 11.64Q132.01 11.72 131.92 11.81L131.92 11.81Q131.40 12.34 131.28 13.22L131.28 13.22Q131.22 13.57 131.29 13.80Q131.37 14.04 131.37 14.30L131.37 14.30Q131.37 14.57 131.35 14.77Q131.34 14.98 131.34 15.21L131.34 15.21Q131.28 16.06 131.32 16.44Q131.37 16.82 131.32 17.00Q131.28 17.17 131.22 17.32L131.22 17.32Q131.07 17.76 131.13 18.07Q131.19 18.38 131.13 18.55Q131.07 18.73 130.99 18.90L130.99 18.90Q130.75 19.40 130.80 20.18Q130.84 20.95 130.74 21.48Q130.63 22.01 130.63 22.56L130.63 22.56Q130.58 24.12 130.22 24L130.22 24Q130.08 23.94 129.98 24.15Q129.87 24.35 129.80 24.67Q129.73 25.00 129.40 24.89Q129.08 24.79 128.98 24.41Q128.88 24.03 128.72 23.91Q128.55 23.79 128.23 23.79ZM134.53 18.49L134.53 18.49L134.50 17.00Q134.50 16.59 134.53 16.24L134.53 16.24Q134.56 15.86 134.47 15.30L134.47 15.30Q134.33 14.33 134.34 13.88Q134.36 13.42 134.34 13.15Q134.33 12.87 134.27 12.63L134.27 12.63Q134.18 12.28 133.84 11.52Q133.51 10.76 133.51 9.88Q133.51 9 133.89 8.47L133.89 8.47Q134.24 7.95 134.15 7.39Q134.06 6.83 134.02 6.20Q133.97 5.57 134.00 4.91Q134.03 4.25 134.30 3.64L134.30 3.64Q134.94 2.14 136.88 2.20L136.88 2.20Q138.08 2.23 138.96 2.44Q139.83 2.64 140.24 2.61Q140.65 2.58 141.50 2.32L141.50 2.32Q142.73 1.85 143.47 2.38L143.47 2.38Q143.67 2.53 143.86 2.60Q144.05 2.67 144.20 2.82L144.20 2.82Q144.70 3.38 144.49 5.25L144.49 5.25Q144.43 5.81 144.38 6.36L144.38 6.36Q144.23 7.68 144.38 8.33Q144.52 8.97 144.54 9.45Q144.55 9.94 144.49 10.32L144.49 10.32Q144.32 11.17 143.82 11.17L143.82 11.17Q143.38 11.14 143.19 10.89Q143.00 10.64 142.88 10.33Q142.76 10.03 142.63 9.78Q142.50 9.53 142.06 9.53L142.06 9.53Q140.77 9.53 140.35 9.25Q139.92 8.97 139.60 8.93Q139.28 8.88 138.98 9L138.98 9Q138.37 9.26 138.27 9.97Q138.16 10.67 138.13 11.20Q138.11 11.72 138.13 12.16L138.13 12.16Q138.19 13.19 138.53 13.32Q138.87 13.45 139.10 13.35Q139.34 13.25 139.57 13.10L139.57 13.10Q140.27 12.63 141.02 12.65Q141.77 12.66 142.13 13.25Q142.50 13.83 142.44 14.38Q142.38 14.92 142.34 15.45Q142.29 15.97 142.21 16.44L142.21 16.44Q141.80 18.26 140.51 17.14L140.51 17.14Q138.84 17.03 138.43 17.55L138.43 17.55Q138.34 17.70 138.25 18.17Q138.16 18.64 138.22 19.17L138.22 19.17Q138.37 20.54 139.54 20.63L139.54 20.63Q140.30 20.69 140.93 20.43Q141.56 20.16 141.77 19.84L141.77 19.84Q141.94 19.49 142.21 19.44Q142.47 19.40 142.68 19.36Q142.88 19.31 143.09 19.31Q143.29 19.31 143.50 19.37L143.50 19.37Q144.02 19.55 144.13 20.19Q144.23 20.84 143.99 21.36Q143.76 21.89 143.69 22.32Q143.61 22.74 143.55 22.95Q143.50 23.15 143.22 23.46Q142.94 23.77 142.78 23.97Q142.62 24.18 142.27 23.88L142.27 23.88Q141.62 23.38 140.71 24.47L140.71 24.47Q140.48 24.79 140.21 24.94Q139.95 25.08 139.39 25.05L139.39 25.05Q138.84 25.03 138.52 24.76Q138.19 24.50 137.93 24.23L137.93 24.23Q137.49 23.68 136.41 23.82L136.41 23.82Q135.76 23.91 135.35 23.27L135.35 23.27Q135.26 23.18 135.22 22.95Q135.18 22.71 135.12 22.42L135.12 22.42Q134.91 21.66 134.75 21.44Q134.59 21.22 134.58 20.87Q134.56 20.51 134.50 20.12Q134.44 19.72 134.41 19.53Q134.38 19.34 134.46 19.08Q134.53 18.81 134.53 18.49Z"></path></svg><svg x="111.06399993896483" y="165.62173748016357" style="fill: rgb(15, 88, 91);"><path d="M7.14 1.98L8.72 1.98L5.17 8.76L5.17 13L3.63 13L3.63 8.78L0.08 1.98L1.76 1.98L4.45 7.43L7.14 1.98ZM13.49 4.38Q15.26 4.38 16.25 5.56Q17.23 6.74 17.23 8.78L17.23 8.78Q17.23 10.09 16.78 11.09Q16.34 12.09 15.49 12.64Q14.64 13.19 13.47 13.19L13.47 13.19Q11.70 13.19 10.70 12.01Q9.71 10.82 9.71 8.79L9.71 8.79Q9.71 7.48 10.16 6.48Q10.61 5.48 11.46 4.93Q12.30 4.38 13.49 4.38L13.49 4.38ZM13.49 5.56Q11.30 5.56 11.30 8.79L11.30 8.79Q11.30 12.01 13.47 12.01L13.47 12.01Q15.65 12.01 15.65 8.78L15.65 8.78Q15.65 5.56 13.49 5.56L13.49 5.56ZM25.94 4.57L25.94 13L24.67 13L24.56 11.69Q24.08 12.47 23.46 12.83Q22.83 13.19 21.94 13.19L21.94 13.19Q20.83 13.19 20.21 12.52Q19.58 11.85 19.58 10.62L19.58 10.62L19.58 4.57L21.06 4.57L21.06 10.46Q21.06 11.32 21.36 11.68Q21.66 12.04 22.35 12.04L22.35 12.04Q23.58 12.04 24.46 10.58L24.46 10.58L24.46 4.57L25.94 4.57ZM32.64 4.38Q33.09 4.38 33.47 4.47L33.47 4.47L33.20 5.91Q32.82 5.82 32.46 5.82L32.46 5.82Q31.68 5.82 31.20 6.39Q30.72 6.97 30.45 8.18L30.45 8.18L30.45 13L28.98 13L28.98 4.57L30.24 4.57L30.38 6.28Q30.72 5.34 31.30 4.86Q31.87 4.38 32.64 4.38L32.64 4.38ZM43.41 1.78Q44.80 1.78 45.85 2.45Q46.90 3.11 47.48 4.39Q48.06 5.67 48.06 7.50L48.06 7.50Q48.06 9.29 47.48 10.57Q46.90 11.85 45.85 12.52Q44.80 13.19 43.41 13.19L43.41 13.19Q42.02 13.19 40.97 12.54Q39.92 11.88 39.34 10.60Q38.75 9.32 38.75 7.51L38.75 7.51Q38.75 5.74 39.34 4.44Q39.92 3.14 40.98 2.46Q42.03 1.78 43.41 1.78L43.41 1.78ZM43.41 3.03Q41.97 3.03 41.17 4.12Q40.37 5.21 40.37 7.51L40.37 7.51Q40.37 9.80 41.18 10.87Q41.98 11.94 43.41 11.94L43.41 11.94Q46.45 11.94 46.45 7.50L46.45 7.50Q46.45 3.03 43.41 3.03L43.41 3.03ZM54.43 4.38Q55.58 4.38 56.23 5.06Q56.88 5.75 56.88 6.95L56.88 6.95L56.88 13L55.41 13L55.41 7.16Q55.41 6.26 55.07 5.90Q54.74 5.53 54.08 5.53L54.08 5.53Q53.41 5.53 52.90 5.91Q52.38 6.30 51.94 7.02L51.94 7.02L51.94 13L50.46 13L50.46 4.57L51.73 4.57L51.86 5.82Q52.30 5.14 52.97 4.76Q53.63 4.38 54.43 4.38L54.43 4.38ZM66.21 8.54Q66.21 8.90 66.18 9.29L66.18 9.29L60.80 9.29Q60.90 10.68 61.50 11.34Q62.11 11.99 63.07 11.99L63.07 11.99Q63.68 11.99 64.19 11.82Q64.70 11.64 65.26 11.26L65.26 11.26L65.90 12.14Q64.56 13.19 62.96 13.19L62.96 13.19Q61.20 13.19 60.22 12.04Q59.23 10.89 59.23 8.87L59.23 8.87Q59.23 7.56 59.66 6.54Q60.08 5.53 60.87 4.95Q61.66 4.38 62.74 4.38L62.74 4.38Q64.42 4.38 65.31 5.48Q66.21 6.58 66.21 8.54L66.21 8.54ZM64.75 8.20L64.75 8.10Q64.75 6.86 64.26 6.20Q63.76 5.54 62.77 5.54L62.77 5.54Q60.96 5.54 60.80 8.20L60.80 8.20L64.75 8.20ZM72.53 8.62L68 8.62L68 7.37L72.53 7.37L72.53 8.62ZM77.81 1.78Q78.91 1.78 79.70 2.10Q80.48 2.41 81.22 3.06L81.22 3.06L80.38 3.99Q79.76 3.50 79.16 3.26Q78.56 3.03 77.87 3.03L77.87 3.03Q77.01 3.03 76.45 3.43Q75.89 3.83 75.89 4.60L75.89 4.60Q75.89 5.08 76.08 5.41Q76.27 5.74 76.79 6.01Q77.31 6.28 78.30 6.58L78.30 6.58Q79.34 6.90 80.03 7.27Q80.72 7.64 81.14 8.29Q81.57 8.94 81.57 9.93L81.57 9.93Q81.57 10.89 81.10 11.62Q80.62 12.36 79.74 12.78Q78.85 13.19 77.63 13.19L77.63 13.19Q75.34 13.19 73.89 11.77L73.89 11.77L74.72 10.84Q75.39 11.38 76.08 11.66Q76.77 11.94 77.62 11.94L77.62 11.94Q78.64 11.94 79.31 11.44Q79.98 10.94 79.98 9.98L79.98 9.98Q79.98 9.43 79.78 9.07Q79.57 8.71 79.06 8.42Q78.56 8.14 77.60 7.85L77.60 7.85Q75.90 7.34 75.12 6.62Q74.34 5.90 74.34 4.66L74.34 4.66Q74.34 3.83 74.78 3.18Q75.22 2.52 76.01 2.15Q76.80 1.78 77.81 1.78L77.81 1.78ZM87.42 11.64L87.98 12.62Q87.15 13.19 86.10 13.19L86.10 13.19Q85.02 13.19 84.42 12.58Q83.82 11.96 83.82 10.79L83.82 10.79L83.82 5.70L82.35 5.70L82.35 4.57L83.82 4.57L83.82 2.66L85.30 2.49L85.30 4.57L87.30 4.57L87.14 5.70L85.30 5.70L85.30 10.73Q85.30 11.38 85.53 11.68Q85.76 11.98 86.30 11.98L86.30 11.98Q86.80 11.98 87.42 11.64L87.42 11.64ZM92.67 4.38Q94.45 4.38 95.43 5.56Q96.42 6.74 96.42 8.78L96.42 8.78Q96.42 10.09 95.97 11.09Q95.52 12.09 94.67 12.64Q93.82 13.19 92.66 13.19L92.66 13.19Q90.88 13.19 89.89 12.01Q88.90 10.82 88.90 8.79L88.90 8.79Q88.90 7.48 89.34 6.48Q89.79 5.48 90.64 4.93Q91.49 4.38 92.67 4.38L92.67 4.38ZM92.67 5.56Q90.48 5.56 90.48 8.79L90.48 8.79Q90.48 12.01 92.66 12.01L92.66 12.01Q94.83 12.01 94.83 8.78L94.83 8.78Q94.83 5.56 92.67 5.56L92.67 5.56ZM102.72 4.38Q104.34 4.38 105.09 5.53Q105.84 6.68 105.84 8.78L105.84 8.78Q105.84 10.76 104.98 11.98Q104.11 13.19 102.53 13.19L102.53 13.19Q101.12 13.19 100.32 12.23L100.32 12.23L100.32 16.23L98.85 16.41L98.85 4.57L100.11 4.57L100.22 5.70Q100.69 5.06 101.34 4.72Q102.00 4.38 102.72 4.38L102.72 4.38ZM102.18 11.99Q104.26 11.99 104.26 8.78L104.26 8.78Q104.26 5.54 102.35 5.54L102.35 5.54Q101.73 5.54 101.22 5.91Q100.70 6.28 100.32 6.86L100.32 6.86L100.32 10.97Q100.64 11.46 101.12 11.73Q101.60 11.99 102.18 11.99L102.18 11.99ZM116.53 1.78Q117.52 1.78 118.20 2.04Q118.88 2.30 119.58 2.87L119.58 2.87L118.75 3.85Q117.74 3.03 116.62 3.03L116.62 3.03Q115.25 3.03 114.41 4.09Q113.57 5.14 113.57 7.48L113.57 7.48Q113.57 9.75 114.40 10.83Q115.23 11.91 116.61 11.91L116.61 11.91Q117.31 11.91 117.84 11.67Q118.37 11.43 118.96 11L118.96 11L119.71 11.96Q119.20 12.49 118.40 12.84Q117.60 13.19 116.56 13.19L116.56 13.19Q115.22 13.19 114.17 12.53Q113.12 11.86 112.54 10.58Q111.95 9.29 111.95 7.48L111.95 7.48Q111.95 5.67 112.56 4.38Q113.17 3.10 114.21 2.44Q115.25 1.78 116.53 1.78L116.53 1.78ZM127.23 11.03Q127.23 11.54 127.41 11.79Q127.58 12.04 127.94 12.17L127.94 12.17L127.60 13.19Q126.94 13.11 126.54 12.82Q126.14 12.54 125.95 11.93L125.95 11.93Q125.10 13.19 123.44 13.19L123.44 13.19Q122.19 13.19 121.47 12.49Q120.75 11.78 120.75 10.65L120.75 10.65Q120.75 9.30 121.72 8.58Q122.69 7.86 124.46 7.86L124.46 7.86L125.76 7.86L125.76 7.24Q125.76 6.34 125.33 5.96Q124.90 5.58 124.00 5.58L124.00 5.58Q123.07 5.58 121.73 6.02L121.73 6.02L121.36 4.95Q122.93 4.38 124.27 4.38L124.27 4.38Q125.76 4.38 126.50 5.10Q127.23 5.83 127.23 7.18L127.23 7.18L127.23 11.03ZM123.78 12.09Q125.04 12.09 125.76 10.78L125.76 10.78L125.76 8.84L124.66 8.84Q122.32 8.84 122.32 10.57L122.32 10.57Q122.32 11.32 122.69 11.70Q123.06 12.09 123.78 12.09L123.78 12.09ZM133.92 4.38Q134.37 4.38 134.75 4.47L134.75 4.47L134.48 5.91Q134.10 5.82 133.74 5.82L133.74 5.82Q132.96 5.82 132.48 6.39Q132 6.97 131.73 8.18L131.73 8.18L131.73 13L130.26 13L130.26 4.57L131.52 4.57L131.66 6.28Q132 5.34 132.58 4.86Q133.15 4.38 133.92 4.38L133.92 4.38ZM142.80 8.54Q142.80 8.90 142.77 9.29L142.77 9.29L137.39 9.29Q137.49 10.68 138.10 11.34Q138.70 11.99 139.66 11.99L139.66 11.99Q140.27 11.99 140.78 11.82Q141.30 11.64 141.86 11.26L141.86 11.26L142.50 12.14Q141.15 13.19 139.55 13.19L139.55 13.19Q137.79 13.19 136.81 12.04Q135.82 10.89 135.82 8.87L135.82 8.87Q135.82 7.56 136.25 6.54Q136.67 5.53 137.46 4.95Q138.26 4.38 139.33 4.38L139.33 4.38Q141.01 4.38 141.90 5.48Q142.80 6.58 142.80 8.54L142.80 8.54ZM141.34 8.20L141.34 8.10Q141.34 6.86 140.85 6.20Q140.35 5.54 139.36 5.54L139.36 5.54Q137.55 5.54 137.39 8.20L137.39 8.20L141.34 8.20ZM151.52 8.54Q151.52 8.90 151.49 9.29L151.49 9.29L146.11 9.29Q146.21 10.68 146.82 11.34Q147.42 11.99 148.38 11.99L148.38 11.99Q148.99 11.99 149.50 11.82Q150.02 11.64 150.58 11.26L150.58 11.26L151.22 12.14Q149.87 13.19 148.27 13.19L148.27 13.19Q146.51 13.19 145.53 12.04Q144.54 10.89 144.54 8.87L144.54 8.87Q144.54 7.56 144.97 6.54Q145.39 5.53 146.18 4.95Q146.98 4.38 148.05 4.38L148.05 4.38Q149.73 4.38 150.62 5.48Q151.52 6.58 151.52 8.54L151.52 8.54ZM150.06 8.20L150.06 8.10Q150.06 6.86 149.57 6.20Q149.07 5.54 148.08 5.54L148.08 5.54Q146.27 5.54 146.11 8.20L146.11 8.20L150.06 8.20ZM157.54 4.38Q157.98 4.38 158.37 4.47L158.37 4.47L158.10 5.91Q157.71 5.82 157.36 5.82L157.36 5.82Q156.58 5.82 156.10 6.39Q155.62 6.97 155.34 8.18L155.34 8.18L155.34 13L153.87 13L153.87 4.57L155.14 4.57L155.28 6.28Q155.62 5.34 156.19 4.86Q156.77 4.38 157.54 4.38L157.54 4.38ZM168.22 1.78Q169.22 1.78 169.90 2.04Q170.58 2.30 171.28 2.87L171.28 2.87L170.45 3.85Q169.44 3.03 168.32 3.03L168.32 3.03Q166.94 3.03 166.10 4.09Q165.26 5.14 165.26 7.48L165.26 7.48Q165.26 9.75 166.10 10.83Q166.93 11.91 168.30 11.91L168.30 11.91Q169.01 11.91 169.54 11.67Q170.06 11.43 170.66 11L170.66 11L171.41 11.96Q170.90 12.49 170.10 12.84Q169.30 13.19 168.26 13.19L168.26 13.19Q166.91 13.19 165.86 12.53Q164.82 11.86 164.23 10.58Q163.65 9.29 163.65 7.48L163.65 7.48Q163.65 5.67 164.26 4.38Q164.86 3.10 165.90 2.44Q166.94 1.78 168.22 1.78L168.22 1.78ZM178.93 11.03Q178.93 11.54 179.10 11.79Q179.28 12.04 179.63 12.17L179.63 12.17L179.30 13.19Q178.64 13.11 178.24 12.82Q177.84 12.54 177.65 11.93L177.65 11.93Q176.80 13.19 175.14 13.19L175.14 13.19Q173.89 13.19 173.17 12.49Q172.45 11.78 172.45 10.65L172.45 10.65Q172.45 9.30 173.42 8.58Q174.38 7.86 176.16 7.86L176.16 7.86L177.46 7.86L177.46 7.24Q177.46 6.34 177.02 5.96Q176.59 5.58 175.70 5.58L175.70 5.58Q174.77 5.58 173.42 6.02L173.42 6.02L173.06 4.95Q174.62 4.38 175.97 4.38L175.97 4.38Q177.46 4.38 178.19 5.10Q178.93 5.83 178.93 7.18L178.93 7.18L178.93 11.03ZM175.47 12.09Q176.74 12.09 177.46 10.78L177.46 10.78L177.46 8.84L176.35 8.84Q174.02 8.84 174.02 10.57L174.02 10.57Q174.02 11.32 174.38 11.70Q174.75 12.09 175.47 12.09L175.47 12.09ZM185.65 11.64L186.21 12.62Q185.38 13.19 184.32 13.19L184.32 13.19Q183.25 13.19 182.65 12.58Q182.05 11.96 182.05 10.79L182.05 10.79L182.05 5.70L180.58 5.70L180.58 4.57L182.05 4.57L182.05 2.66L183.52 2.49L183.52 4.57L185.52 4.57L185.36 5.70L183.52 5.70L183.52 10.73Q183.52 11.38 183.75 11.68Q183.98 11.98 184.53 11.98L184.53 11.98Q185.02 11.98 185.65 11.64L185.65 11.64ZM193.41 11.03Q193.41 11.54 193.58 11.79Q193.76 12.04 194.11 12.17L194.11 12.17L193.78 13.19Q193.12 13.11 192.72 12.82Q192.32 12.54 192.13 11.93L192.13 11.93Q191.28 13.19 189.62 13.19L189.62 13.19Q188.37 13.19 187.65 12.49Q186.93 11.78 186.93 10.65L186.93 10.65Q186.93 9.30 187.90 8.58Q188.86 7.86 190.64 7.86L190.64 7.86L191.94 7.86L191.94 7.24Q191.94 6.34 191.50 5.96Q191.07 5.58 190.18 5.58L190.18 5.58Q189.25 5.58 187.90 6.02L187.90 6.02L187.54 4.95Q189.10 4.38 190.45 4.38L190.45 4.38Q191.94 4.38 192.67 5.10Q193.41 5.83 193.41 7.18L193.41 7.18L193.41 11.03ZM189.95 12.09Q191.22 12.09 191.94 10.78L191.94 10.78L191.94 8.84L190.83 8.84Q188.50 8.84 188.50 10.57L188.50 10.57Q188.50 11.32 188.86 11.70Q189.23 12.09 189.95 12.09L189.95 12.09ZM198.11 13.19Q197.30 13.19 196.82 12.70Q196.35 12.22 196.35 11.34L196.35 11.34L196.35 1.18L197.82 1L197.82 11.30Q197.82 11.66 197.94 11.82Q198.06 11.98 198.35 11.98L198.35 11.98Q198.66 11.98 198.90 11.88L198.90 11.88L199.28 12.90Q198.75 13.19 198.11 13.19L198.11 13.19ZM207.31 4.57L204.50 13.05Q204 14.52 203.11 15.38Q202.22 16.23 200.58 16.41L200.58 16.41L200.42 15.26Q201.25 15.11 201.74 14.84Q202.24 14.57 202.54 14.14Q202.83 13.72 203.09 13L203.09 13L202.59 13L199.76 4.57L201.33 4.57L203.58 11.93L205.79 4.57L207.31 4.57ZM211.28 4.38Q212.14 4.38 212.83 4.62Q213.52 4.86 214.14 5.34L214.14 5.34L213.52 6.26Q212.94 5.90 212.42 5.72Q211.90 5.54 211.33 5.54L211.33 5.54Q210.61 5.54 210.19 5.84Q209.78 6.14 209.78 6.65L209.78 6.65Q209.78 7.16 210.17 7.45Q210.56 7.74 211.58 8.01L211.58 8.01Q212.99 8.36 213.69 8.97Q214.38 9.58 214.38 10.63L214.38 10.63Q214.38 11.88 213.42 12.54Q212.45 13.19 211.06 13.19L211.06 13.19Q209.14 13.19 207.87 12.09L207.87 12.09L208.66 11.19Q209.73 12.01 211.02 12.01L211.02 12.01Q211.86 12.01 212.34 11.66Q212.83 11.32 212.83 10.73L212.83 10.73Q212.83 10.30 212.66 10.03Q212.48 9.77 212.05 9.57Q211.62 9.37 210.78 9.14L210.78 9.14Q209.44 8.79 208.84 8.20Q208.24 7.61 208.24 6.70L208.24 6.70Q208.24 6.04 208.63 5.50Q209.02 4.97 209.72 4.67Q210.42 4.38 211.28 4.38L211.28 4.38ZM220.16 11.64L220.72 12.62Q219.89 13.19 218.83 13.19L218.83 13.19Q217.76 13.19 217.16 12.58Q216.56 11.96 216.56 10.79L216.56 10.79L216.56 5.70L215.09 5.70L215.09 4.57L216.56 4.57L216.56 2.66L218.03 2.49L218.03 4.57L220.03 4.57L219.87 5.70L218.03 5.70L218.03 10.73Q218.03 11.38 218.26 11.68Q218.50 11.98 219.04 11.98L219.04 11.98Q219.54 11.98 220.16 11.64L220.16 11.64Z"></path></svg></svg>
