<svg xmlns="http://www.w3.org/2000/svg" xmlns:xlink="http://www.w3.org/1999/xlink" xmlns:svgjs="http://svgjs.dev/svgjs" version="1.1" class="svg-animations " style="background-color: rgb(255, 255, 255);" viewBox="25.05 117.13 240.54 63.38"><svg viewBox="0 0 147.997314453125 138.99659729003906" width="70" height="70" x="25.044999694824213" y="115" style="fill: rgb(15, 88, 91);"><svg xmlns="http://www.w3.org/2000/svg" width="137" height="137" viewBox="0 0 152 137">    <path d="M122.484 134H125.113C142.702 134 153.698 114.989 144.904 99.7873L119.347 55.5958L93.7911 11.4043C84.9965 -3.79689 63.0167 -3.79689 54.2221 11.4043L52.9009 13.6825C48.8172 20.7436 48.8172 29.43 52.9009 36.491L79.8719 83.1206L102.706 122.609C106.776 129.657 114.316 134 122.484 134Z"></path>    <path d="M6.51242 93.8984L3.09601 99.7871C-5.69858 114.988 5.29799 134 22.8872 134H29.7066C47.2958 134 58.2924 114.988 49.4978 99.7871L46.0814 93.8851C37.2868 78.6839 15.2937 78.6839 6.51242 93.8984Z"></path>    </svg></svg><svg x="125.19648895263671" y="136.7027997970581" style="fill: rgb(15, 88, 91);"><path d="M0.66 6.74L0.66 6.74L0.54 4.80Q0.54 4.30 0.52 3.74L0.52 3.74Q0.42 2.34 0.70 2.17L0.70 2.17Q0.96 2.03 1.07 1.87Q1.17 1.70 1.30 1.70Q1.43 1.70 1.70 1.69Q1.97 1.68 2.27 1.70L2.27 1.70Q3 1.75 3.25 1.91Q3.49 2.08 3.80 2.13Q4.10 2.17 4.42 2.18Q4.73 2.20 5.02 2.18Q5.30 2.17 5.52 2.17Q5.74 2.17 5.81 2.22L5.81 2.22Q6.09 2.34 6.29 2.31Q6.49 2.29 6.68 2.49Q6.87 2.69 6.94 2.79Q7.01 2.90 7.39 2.95Q7.78 2.99 8.04 3.03Q8.30 3.06 8.55 3.25Q8.81 3.44 8.98 3.48Q9.14 3.53 9.34 3.79Q9.54 4.05 9.61 4.16Q9.68 4.28 9.70 4.56L9.70 4.56Q9.73 5.22 10.03 5.52Q10.34 5.83 10.37 6.11Q10.41 6.39 10.43 6.77Q10.45 7.14 10.51 7.69Q10.57 8.24 10.28 8.91Q9.98 9.58 9.69 9.84Q9.40 10.09 9.21 10.46Q9.02 10.82 8.94 11.28Q8.86 11.73 8.44 12.20L8.44 12.20Q8.18 12.53 8.03 12.60Q7.88 12.67 7.73 12.75Q7.59 12.84 7.41 12.96Q7.22 13.09 6.98 13.19L6.98 13.19Q6.40 13.47 5.98 13.30L5.98 13.30Q5.72 13.42 5.47 13.46Q5.23 13.49 4.97 13.56L4.97 13.56Q4.43 13.75 4.37 14.20Q4.31 14.64 4.46 15.11Q4.62 15.58 4.64 15.91L4.64 15.91Q4.76 16.96 4.13 17.73L4.13 17.73Q3.73 18.20 3.61 18.73Q3.49 19.26 3.19 19.45L3.19 19.45Q2.67 19.91 2.20 19.23L2.20 19.23Q2.13 19.16 1.90 19.05L1.90 19.05Q1.57 18.86 1.49 18.45Q1.41 18.04 1.41 17.62Q1.41 17.20 1.34 16.82Q1.27 16.45 1.17 16.02L1.17 16.02Q0.96 14.88 0.96 14.45Q0.96 14.03 0.95 13.59Q0.94 13.14 1.07 12.79Q1.20 12.44 1.17 12.32Q1.15 12.20 1.22 12.05Q1.29 11.90 1.38 11.68Q1.48 11.45 1.52 11.22L1.52 11.22Q1.62 10.73 1.24 10.38L1.24 10.38Q0.82 9.98 0.82 9.53L0.82 9.53L0.82 9.39Q0.89 8.59 0.84 8.31L0.84 8.31Q0.66 7.52 0.66 6.74ZM4.41 7.81Q4.45 7.91 4.49 8.09Q4.52 8.27 4.56 8.59Q4.59 8.92 4.56 9.29Q4.52 9.65 4.50 9.95L4.50 9.95Q4.45 10.73 4.69 10.82L4.69 10.82Q4.95 10.94 5.53 10.19L5.53 10.19Q6.16 9.41 6.59 8.31L6.59 8.31Q6.80 7.73 6.61 7.45L6.61 7.45Q6.21 6.98 6.28 6.60L6.28 6.60Q6.30 6.58 6.28 6.48L6.28 6.48Q6.23 6.44 6.16 6.36Q6.09 6.27 5.95 6.20L5.95 6.20Q5.41 5.99 4.98 6.19Q4.55 6.39 4.42 6.77Q4.29 7.14 4.30 7.34Q4.31 7.54 4.34 7.62Q4.36 7.70 4.41 7.81ZM18.55 15.45Q18.66 15.63 18.64 15.87Q18.63 16.12 18.60 16.38Q18.56 16.63 18.61 16.95Q18.66 17.27 18.69 17.56Q18.73 17.85 18.73 18.11Q18.73 18.37 18.57 18.54Q18.42 18.72 18.12 18.84Q17.81 18.95 17.44 19L17.44 19Q16.57 19.07 15.94 18.74L15.94 18.74Q15.35 18.44 14.82 18.55Q14.30 18.67 14.00 18.78Q13.71 18.88 13.32 18.98Q12.94 19.07 12.56 19.06Q12.19 19.05 11.93 18.64Q11.67 18.23 11.65 17.69Q11.63 17.15 11.81 16.59Q12 16.02 11.95 15.31Q11.91 14.59 11.86 14.09Q11.81 13.59 11.86 13.21L11.86 13.21Q11.98 12.32 11.65 11.97L11.65 11.97Q11.39 11.66 11.39 11.25Q11.39 10.84 11.41 10.59Q11.44 10.33 11.58 10.14Q11.72 9.95 11.75 9.82Q11.79 9.70 11.74 9.37L11.74 9.37Q11.55 8.03 11.61 7.30Q11.67 6.58 11.59 6.05Q11.51 5.52 11.55 5.18Q11.60 4.84 11.51 4.61Q11.41 4.38 11.45 4.27Q11.48 4.16 11.44 3.96Q11.39 3.77 11.34 3.53L11.34 3.53Q11.20 2.83 11.26 2.57Q11.32 2.31 11.50 1.97Q11.67 1.63 11.93 1.56Q12.19 1.49 12.23 1.45Q12.28 1.40 12.47 1.33L12.47 1.33Q12.96 1.19 13.20 1.30Q13.43 1.42 13.62 1.43Q13.80 1.45 14.00 1.43Q14.20 1.42 14.39 1.38L14.39 1.38L14.67 1.33Q15.16 1.19 15.42 1.38L15.42 1.38Q15.59 1.54 15.66 1.63Q15.73 1.73 15.68 1.91L15.68 1.91Q15.63 2.10 15.73 2.22Q15.82 2.34 15.80 2.56Q15.77 2.78 15.79 2.89Q15.80 2.99 15.82 3.11L15.82 3.11Q15.87 3.34 15.77 3.67Q15.68 4 15.66 4.11Q15.63 4.21 15.63 4.30L15.63 4.30Q15.63 4.61 15.55 4.88Q15.47 5.15 15.46 5.32Q15.45 5.50 15.45 5.73L15.45 5.73L15.45 6.25Q15.45 6.53 15.41 6.95Q15.38 7.38 15.34 7.95Q15.30 8.52 15.28 9.11L15.28 9.11Q15.19 10.66 15.05 11.08L15.05 11.08Q14.67 11.29 14.93 12.06L14.93 12.06L15.09 12.55Q15.33 13.26 15.33 13.94Q15.33 14.62 15.21 15.25L15.21 15.25Q15.89 15.63 16.17 15.65L16.17 15.65Q16.85 15.74 17.40 15.46Q17.95 15.18 18.20 15.23Q18.45 15.27 18.55 15.45ZM19.66 14.59L19.66 14.59L19.64 13.40Q19.64 13.07 19.66 12.79L19.66 12.79Q19.69 12.48 19.62 12.04L19.62 12.04Q19.50 11.27 19.51 10.90Q19.52 10.54 19.51 10.32Q19.50 10.09 19.45 9.91L19.45 9.91Q19.38 9.63 19.11 9.02Q18.84 8.41 18.84 7.70Q18.84 7 19.15 6.58L19.15 6.58Q19.43 6.16 19.36 5.71Q19.29 5.27 19.25 4.76Q19.22 4.26 19.24 3.73Q19.27 3.20 19.48 2.71L19.48 2.71Q19.99 1.52 21.54 1.56L21.54 1.56Q22.50 1.59 23.20 1.75Q23.91 1.91 24.23 1.89Q24.56 1.87 25.24 1.66L25.24 1.66Q26.23 1.28 26.81 1.70L26.81 1.70Q26.98 1.82 27.13 1.88Q27.28 1.94 27.40 2.05L27.40 2.05Q27.80 2.50 27.63 4L27.63 4Q27.59 4.45 27.54 4.89L27.54 4.89Q27.42 5.95 27.54 6.46Q27.66 6.98 27.67 7.36Q27.68 7.75 27.63 8.05L27.63 8.05Q27.49 8.73 27.09 8.73L27.09 8.73Q26.74 8.71 26.59 8.51Q26.44 8.31 26.34 8.07Q26.25 7.82 26.14 7.62Q26.04 7.42 25.69 7.42L25.69 7.42Q24.66 7.42 24.32 7.20Q23.98 6.98 23.72 6.94Q23.46 6.91 23.23 7L23.23 7Q22.73 7.21 22.65 7.77Q22.57 8.34 22.55 8.76Q22.52 9.18 22.55 9.53L22.55 9.53Q22.59 10.35 22.86 10.46Q23.13 10.56 23.32 10.48Q23.51 10.40 23.70 10.28L23.70 10.28Q24.26 9.91 24.86 9.92Q25.45 9.93 25.75 10.40Q26.04 10.87 25.99 11.30Q25.95 11.73 25.91 12.16Q25.88 12.58 25.80 12.95L25.80 12.95Q25.48 14.41 24.45 13.52L24.45 13.52Q23.11 13.42 22.78 13.84L22.78 13.84Q22.71 13.96 22.64 14.34Q22.57 14.71 22.62 15.13L22.62 15.13Q22.73 16.23 23.67 16.30L23.67 16.30Q24.28 16.35 24.79 16.14Q25.29 15.93 25.45 15.67L25.45 15.67Q25.59 15.39 25.80 15.36Q26.02 15.32 26.18 15.29Q26.34 15.25 26.51 15.25Q26.67 15.25 26.84 15.30L26.84 15.30Q27.26 15.44 27.34 15.95Q27.42 16.47 27.23 16.89Q27.05 17.31 26.99 17.65Q26.93 17.99 26.88 18.16Q26.84 18.32 26.61 18.57Q26.39 18.81 26.26 18.98Q26.13 19.14 25.85 18.91L25.85 18.91Q25.34 18.51 24.61 19.38L24.61 19.38Q24.42 19.63 24.21 19.75Q24 19.87 23.55 19.84L23.55 19.84Q23.11 19.82 22.85 19.61Q22.59 19.40 22.38 19.19L22.38 19.19Q22.03 18.74 21.16 18.86L21.16 18.86Q20.65 18.93 20.32 18.41L20.32 18.41Q20.25 18.34 20.21 18.16Q20.18 17.97 20.13 17.73L20.13 17.73Q19.97 17.13 19.84 16.95Q19.71 16.77 19.70 16.49Q19.69 16.21 19.64 15.89Q19.59 15.58 19.57 15.43Q19.55 15.27 19.61 15.06Q19.66 14.85 19.66 14.59ZM37.44 5.34Q37.50 5.48 37.48 5.64Q37.45 5.80 37.15 6.20Q36.84 6.60 36.79 7.06Q36.73 7.52 36.75 7.81Q36.77 8.10 36.75 8.31L36.75 8.31Q36.73 8.83 36.19 9.02L36.19 9.02Q35.72 9.20 35.46 8.99Q35.20 8.78 35.04 8.44Q34.88 8.10 34.79 7.86Q34.71 7.61 34.52 7.59L34.52 7.59Q34.20 7.52 34.02 7.66Q33.84 7.80 33.75 7.89L33.75 7.89Q33.56 8.08 33.36 8.15Q33.16 8.22 33.05 8.29L33.05 8.29Q32.81 8.45 32.86 8.83L32.86 8.83Q32.95 9.55 34.48 11.03L34.48 11.03Q34.76 11.31 35.14 11.64Q35.53 11.97 35.91 12.39L35.91 12.39Q36.75 13.40 36.84 14.66L36.84 14.66Q36.94 15.95 36.47 16.91L36.47 16.91Q36.09 17.69 35.58 17.92L35.58 17.92Q35.18 18.13 35.04 18.47Q34.90 18.81 34.83 18.96Q34.76 19.12 34.54 19.22Q34.31 19.33 34.03 19.30Q33.75 19.28 33.50 19.20Q33.26 19.12 33.06 19.01Q32.86 18.91 32.73 18.88Q32.60 18.86 32.48 18.96Q32.37 19.07 32.25 19.19L32.25 19.19Q31.90 19.54 31.62 19.46Q31.34 19.38 30.96 19.19Q30.59 19 30.23 18.72L30.23 18.72Q28.97 17.73 29.37 16.70L29.37 16.70Q29.63 16.02 29.94 15.74Q30.26 15.46 30.45 15.46L30.45 15.46Q30.75 15.46 30.86 15.68Q30.96 15.91 31.03 16.06Q31.10 16.21 31.20 16.30Q31.29 16.40 31.49 16.49Q31.69 16.59 31.92 16.61L31.92 16.61Q32.51 16.66 32.81 16.14L32.81 16.14Q33.12 15.63 33.05 15.02L33.05 15.02Q32.88 13.91 32.58 14.08L32.58 14.08Q32.32 14.24 31.95 14.09Q31.57 13.94 31.55 13.69Q31.52 13.45 31.45 13.21Q31.38 12.98 31.29 12.77L31.29 12.77Q31.08 12.23 30.91 12.18L30.91 12.18Q30.73 12.13 30.41 12.13Q30.09 12.13 29.72 11.72Q29.34 11.31 29.18 10.69Q29.02 10.07 28.90 9.61Q28.78 9.16 28.69 8.90Q28.59 8.64 28.52 8.36L28.52 8.36Q28.29 7.47 28.50 6.06L28.50 6.06Q28.64 5.24 29.02 4.62Q29.39 4 29.86 3.39L29.86 3.39Q30.75 2.20 31.50 1.73Q32.25 1.26 32.65 1.63L32.65 1.63Q33 1.94 33.41 1.88Q33.82 1.82 34.05 1.75L34.05 1.75L34.48 1.66Q34.88 1.56 35.29 1.68Q35.70 1.80 36.02 2.48L36.02 2.48Q36.19 2.83 36.36 3.09Q36.54 3.34 36.70 3.58L36.70 3.58Q37.05 4.14 37.11 4.50Q37.17 4.87 37.28 5.03Q37.38 5.20 37.44 5.34ZM46.36 8.99Q45.89 9.95 45.71 10.40Q45.54 10.84 45.54 11.07Q45.54 11.29 45.69 11.68Q45.84 12.06 46.08 12.54Q46.31 13.02 46.61 13.61Q46.90 14.20 47.11 14.70Q47.32 15.20 47.40 15.47Q47.48 15.74 47.53 16L47.53 16Q47.58 16.45 47.50 17.01Q47.41 17.57 47.45 17.91Q47.48 18.25 47.47 18.53Q47.46 18.81 47.37 18.99Q47.27 19.16 46.82 19.20Q46.36 19.23 45.97 18.88Q45.59 18.53 45.32 18.05Q45.05 17.57 44.87 17.10Q44.70 16.63 44.41 16.33Q44.13 16.02 43.93 15.44Q43.73 14.85 43.59 14.31Q43.45 13.77 43.29 13.38Q43.13 12.98 42.83 12.93Q42.54 12.88 42.46 13.07Q42.38 13.26 42.39 13.57Q42.40 13.89 42.45 14.28Q42.49 14.66 42.50 15.12Q42.52 15.58 42.46 15.98Q42.40 16.38 42.08 16.74Q41.77 17.10 41.66 17.48Q41.55 17.85 41.48 18.20Q41.41 18.55 41.30 18.81Q41.18 19.07 40.90 19.07L40.90 19.07Q40.34 19.09 39.87 18.44Q39.40 17.78 39.33 16.73L39.33 16.73Q39.26 16.12 38.98 15.93L38.98 15.93Q38.72 15.77 38.81 14.64L38.81 14.64Q38.84 14.34 38.91 14.10L38.91 14.10Q39.05 13.38 38.89 12.03Q38.74 10.68 38.70 10.43Q38.65 10.19 38.59 9.85Q38.53 9.51 38.50 9.12Q38.46 8.73 38.46 8.32Q38.46 7.91 38.57 7.46Q38.67 7 38.68 6.70Q38.70 6.39 38.67 6.16L38.67 6.16Q38.55 5.41 38.59 4.95Q38.63 4.49 38.55 3.98Q38.48 3.46 38.46 2.97Q38.44 2.48 38.54 2.07Q38.65 1.66 38.96 1.47Q39.28 1.28 39.52 1.32Q39.75 1.35 40.01 1.42L40.01 1.42Q40.78 1.63 41.09 1.59L41.09 1.59Q42.87 1.14 42.52 3.86L42.52 3.86Q42.45 4.30 42.38 4.66L42.38 4.66Q42.21 5.50 42.28 5.92L42.28 5.92Q42.33 6.20 42.34 6.53Q42.35 6.86 42.38 7.14L42.38 7.14Q42.42 7.80 42.68 7.80L42.68 7.80Q43.08 7.80 43.69 6.44L43.69 6.44Q43.83 6.13 43.89 5.95Q43.95 5.76 44.05 5.50Q44.16 5.24 44.30 4.98L44.30 4.98Q44.67 4.35 45.09 4.19L45.09 4.19Q44.79 3.53 44.99 3.05Q45.19 2.57 45.30 2.34Q45.42 2.10 45.56 1.96L45.56 1.96Q45.82 1.70 46.32 1.84Q46.83 1.98 47.20 1.87Q47.58 1.75 47.94 1.62Q48.30 1.49 48.66 1.43Q49.01 1.38 49.25 1.59Q49.50 1.80 49.56 2.07Q49.62 2.34 49.55 2.64L49.55 2.64Q49.41 3.27 48.84 3.88L48.84 3.88Q48.52 5.17 47.77 5.92L47.77 5.92Q47.67 7.02 47.06 7.77L47.06 7.77Q46.83 8.03 46.36 8.99ZM53.23 14.78L53.23 14.78L53.30 15.91Q53.34 16.82 52.83 17.10L52.83 17.10Q52.69 18.04 52.69 18.77L52.69 18.77Q52.52 19.09 52.15 19.16L52.15 19.16Q51.45 19.26 51.23 18.79L51.23 18.79Q50.93 18.20 50.74 18.16L50.74 18.16Q50.70 18.13 50.59 18.12Q50.48 18.11 50.34 18.05Q50.20 17.99 50.24 17.69Q50.27 17.38 50.23 17.20Q50.18 17.01 50.11 16.80L50.11 16.80Q49.92 16.19 49.92 15.63L49.92 15.63Q49.92 15.23 49.93 14.90Q49.95 14.57 49.95 14.24L49.95 14.24Q49.90 13.19 49.68 12.44Q49.45 11.69 49.38 11.45L49.38 11.45Q49.24 10.94 49.24 10.47L49.24 10.47Q49.24 10.19 49.31 10.06Q49.38 9.93 49.45 9.79L49.45 9.79Q49.64 9.44 49.61 8.97Q49.57 8.50 49.54 8.02Q49.50 7.54 49.46 6.94Q49.43 6.34 49.39 5.66Q49.36 4.98 49.36 4.35L49.36 4.35Q49.36 2.29 49.88 2.03L49.88 2.03Q49.97 1.98 50.10 1.93Q50.23 1.87 50.41 1.75Q50.60 1.63 50.75 1.52Q50.91 1.40 51.07 1.33L51.07 1.33Q51.38 1.19 51.81 1.36Q52.24 1.54 52.43 1.60Q52.62 1.66 52.80 1.69Q52.99 1.73 53.24 1.71Q53.48 1.70 53.94 1.69Q54.40 1.68 54.93 1.70Q55.45 1.73 55.95 1.84L55.95 1.84Q57.54 2.17 58.41 3.60L58.41 3.60Q58.78 4.23 58.80 4.73Q58.83 5.22 58.86 5.68Q58.90 6.13 59.04 6.71Q59.18 7.28 59.13 7.80Q59.09 8.31 59.03 8.51Q58.97 8.71 58.90 8.88L58.90 8.88Q58.78 9.23 58.80 9.60L58.80 9.60Q58.85 10.21 58.71 10.55Q58.57 10.89 58.43 11.24L58.43 11.24Q58.03 12.11 57.56 12.23L57.56 12.23Q57.30 12.27 57.14 12.32Q56.98 12.37 56.95 12.53L56.95 12.53Q56.91 12.65 57.09 12.80Q57.28 12.95 57.48 13.26Q57.68 13.56 57.82 13.66Q57.96 13.75 58.08 13.77L58.08 13.77Q58.43 13.84 58.52 13.94L58.52 13.94Q58.73 14.20 58.84 14.36Q58.95 14.52 58.90 14.85L58.90 14.85Q58.85 15.18 58.90 15.53Q58.95 15.88 58.99 16.27Q59.04 16.66 59.00 16.91Q58.97 17.17 58.97 17.29L58.97 17.29L59.06 17.90Q59.06 18.46 58.73 18.81Q58.41 19.16 58.22 19.21Q58.03 19.26 57.87 19.19Q57.70 19.12 57.59 19.01Q57.47 18.91 57.40 18.87Q57.33 18.84 57.22 18.82Q57.12 18.81 57 18.77L57 18.77Q56.58 18.65 56.27 17.13L56.27 17.13Q56.11 16.38 55.71 16.16L55.71 16.16Q55.10 15.86 55.05 15.32L55.05 15.32Q55.03 15.06 55.01 14.62L55.01 14.62Q54.91 13.73 54.40 13.52L54.40 13.52Q54.14 13.42 53.93 13.42Q53.72 13.42 53.51 13.66L53.51 13.66Q53.23 14.01 53.23 14.78ZM54.40 10.33Q54.70 10.05 55.00 9.82Q55.29 9.60 55.49 9.24Q55.69 8.88 55.80 8.50L55.80 8.50Q55.99 7.80 55.93 7.20Q55.88 6.60 55.79 6.40Q55.71 6.20 55.32 6.20Q54.94 6.20 54.55 6.02Q54.16 5.83 54.12 5.57L54.12 5.57Q54.07 5.01 53.77 5.17L53.77 5.17Q53.60 5.27 53.53 5.35Q53.46 5.43 53.41 5.83L53.41 5.83Q53.34 6.65 53.43 7.12Q53.51 7.59 53.53 7.74Q53.55 7.89 53.57 8.07Q53.58 8.24 53.59 8.46Q53.60 8.69 53.64 9.17Q53.67 9.65 53.65 9.98Q53.63 10.30 53.72 10.66L53.72 10.66Q54.09 10.61 54.40 10.33ZM60.91 14.59L60.91 14.59L60.89 13.40Q60.89 13.07 60.91 12.79L60.91 12.79Q60.94 12.48 60.87 12.04L60.87 12.04Q60.75 11.27 60.76 10.90Q60.77 10.54 60.76 10.32Q60.75 10.09 60.70 9.91L60.70 9.91Q60.63 9.63 60.36 9.02Q60.09 8.41 60.09 7.70Q60.09 7 60.40 6.58L60.40 6.58Q60.68 6.16 60.61 5.71Q60.54 5.27 60.50 4.76Q60.47 4.26 60.49 3.73Q60.52 3.20 60.73 2.71L60.73 2.71Q61.24 1.52 62.79 1.56L62.79 1.56Q63.75 1.59 64.45 1.75Q65.16 1.91 65.48 1.89Q65.81 1.87 66.49 1.66L66.49 1.66Q67.48 1.28 68.06 1.70L68.06 1.70Q68.23 1.82 68.38 1.88Q68.53 1.94 68.65 2.05L68.65 2.05Q69.05 2.50 68.88 4L68.88 4Q68.84 4.45 68.79 4.89L68.79 4.89Q68.67 5.95 68.79 6.46Q68.91 6.98 68.92 7.36Q68.93 7.75 68.88 8.05L68.88 8.05Q68.74 8.73 68.34 8.73L68.34 8.73Q67.99 8.71 67.84 8.51Q67.69 8.31 67.59 8.07Q67.50 7.82 67.39 7.62Q67.29 7.42 66.94 7.42L66.94 7.42Q65.91 7.42 65.57 7.20Q65.23 6.98 64.97 6.94Q64.71 6.91 64.48 7L64.48 7Q63.98 7.21 63.90 7.77Q63.82 8.34 63.80 8.76Q63.77 9.18 63.80 9.53L63.80 9.53Q63.84 10.35 64.11 10.46Q64.38 10.56 64.57 10.48Q64.76 10.40 64.95 10.28L64.95 10.28Q65.51 9.91 66.11 9.92Q66.70 9.93 67.00 10.40Q67.29 10.87 67.24 11.30Q67.20 11.73 67.16 12.16Q67.13 12.58 67.05 12.95L67.05 12.95Q66.73 14.41 65.70 13.52L65.70 13.52Q64.36 13.42 64.03 13.84L64.03 13.84Q63.96 13.96 63.89 14.34Q63.82 14.71 63.87 15.13L63.87 15.13Q63.98 16.23 64.92 16.30L64.92 16.30Q65.53 16.35 66.04 16.14Q66.54 15.93 66.70 15.67L66.70 15.67Q66.84 15.39 67.05 15.36Q67.27 15.32 67.43 15.29Q67.59 15.25 67.76 15.25Q67.92 15.25 68.09 15.30L68.09 15.30Q68.51 15.44 68.59 15.95Q68.67 16.47 68.48 16.89Q68.30 17.31 68.24 17.65Q68.18 17.99 68.13 18.16Q68.09 18.32 67.86 18.57Q67.64 18.81 67.51 18.98Q67.38 19.14 67.10 18.91L67.10 18.91Q66.59 18.51 65.86 19.38L65.86 19.38Q65.67 19.63 65.46 19.75Q65.25 19.87 64.80 19.84L64.80 19.84Q64.36 19.82 64.10 19.61Q63.84 19.40 63.63 19.19L63.63 19.19Q63.28 18.74 62.41 18.86L62.41 18.86Q61.90 18.93 61.57 18.41L61.57 18.41Q61.50 18.34 61.46 18.16Q61.43 17.97 61.38 17.73L61.38 17.73Q61.22 17.13 61.09 16.95Q60.96 16.77 60.95 16.49Q60.94 16.21 60.89 15.89Q60.84 15.58 60.82 15.43Q60.80 15.27 60.86 15.06Q60.91 14.85 60.91 14.59ZM78.69 5.34Q78.75 5.48 78.73 5.64Q78.70 5.80 78.40 6.20Q78.09 6.60 78.04 7.06Q77.98 7.52 78 7.81Q78.02 8.10 78 8.31L78 8.31Q77.98 8.83 77.44 9.02L77.44 9.02Q76.97 9.20 76.71 8.99Q76.45 8.78 76.29 8.44Q76.13 8.10 76.04 7.86Q75.96 7.61 75.77 7.59L75.77 7.59Q75.45 7.52 75.27 7.66Q75.09 7.80 75 7.89L75 7.89Q74.81 8.08 74.61 8.15Q74.41 8.22 74.30 8.29L74.30 8.29Q74.06 8.45 74.11 8.83L74.11 8.83Q74.20 9.55 75.73 11.03L75.73 11.03Q76.01 11.31 76.39 11.64Q76.78 11.97 77.16 12.39L77.16 12.39Q78 13.40 78.09 14.66L78.09 14.66Q78.19 15.95 77.72 16.91L77.72 16.91Q77.34 17.69 76.83 17.92L76.83 17.92Q76.43 18.13 76.29 18.47Q76.15 18.81 76.08 18.96Q76.01 19.12 75.79 19.22Q75.56 19.33 75.28 19.30Q75 19.28 74.75 19.20Q74.51 19.12 74.31 19.01Q74.11 18.91 73.98 18.88Q73.85 18.86 73.73 18.96Q73.62 19.07 73.50 19.19L73.50 19.19Q73.15 19.54 72.87 19.46Q72.59 19.38 72.21 19.19Q71.84 19 71.48 18.72L71.48 18.72Q70.22 17.73 70.62 16.70L70.62 16.70Q70.88 16.02 71.19 15.74Q71.51 15.46 71.70 15.46L71.70 15.46Q72 15.46 72.11 15.68Q72.21 15.91 72.28 16.06Q72.35 16.21 72.45 16.30Q72.54 16.40 72.74 16.49Q72.94 16.59 73.17 16.61L73.17 16.61Q73.76 16.66 74.06 16.14L74.06 16.14Q74.37 15.63 74.30 15.02L74.30 15.02Q74.13 13.91 73.83 14.08L73.83 14.08Q73.57 14.24 73.20 14.09Q72.82 13.94 72.80 13.69Q72.77 13.45 72.70 13.21Q72.63 12.98 72.54 12.77L72.54 12.77Q72.33 12.23 72.16 12.18L72.16 12.18Q71.98 12.13 71.66 12.13Q71.34 12.13 70.97 11.72Q70.59 11.31 70.43 10.69Q70.27 10.07 70.15 9.61Q70.03 9.16 69.94 8.90Q69.84 8.64 69.77 8.36L69.77 8.36Q69.54 7.47 69.75 6.06L69.75 6.06Q69.89 5.24 70.27 4.62Q70.64 4 71.11 3.39L71.11 3.39Q72 2.20 72.75 1.73Q73.50 1.26 73.90 1.63L73.90 1.63Q74.25 1.94 74.66 1.88Q75.07 1.82 75.30 1.75L75.30 1.75L75.73 1.66Q76.13 1.56 76.54 1.68Q76.95 1.80 77.27 2.48L77.27 2.48Q77.44 2.83 77.61 3.09Q77.79 3.34 77.95 3.58L77.95 3.58Q78.30 4.14 78.36 4.50Q78.42 4.87 78.53 5.03Q78.63 5.20 78.69 5.34ZM83.91 5.24L83.91 5.24L83.79 10.56Q83.79 14.10 84.77 13.91L84.77 13.91Q85.62 13.77 85.55 10.94L85.55 10.94Q85.55 10.09 85.68 9.85Q85.80 9.60 85.85 9.44L85.85 9.44Q85.97 8.97 85.90 8.20L85.90 8.20Q85.85 7.70 85.73 6.72Q85.62 5.73 85.52 4.69Q85.43 3.65 85.43 2.80Q85.43 1.96 85.61 1.75Q85.78 1.54 86.05 1.50Q86.32 1.47 86.61 1.50Q86.91 1.54 87.18 1.61Q87.45 1.68 87.62 1.68Q87.80 1.68 88.04 1.62Q88.29 1.56 88.54 1.53Q88.78 1.49 89.00 1.49Q89.23 1.49 89.41 1.66Q89.60 1.82 89.73 2.48Q89.86 3.13 89.92 4.02Q89.98 4.91 89.98 5.93Q89.98 6.95 89.95 7.87L89.95 7.87Q89.86 9.88 89.78 10.30Q89.70 10.73 89.58 10.91Q89.46 11.10 89.34 11.27L89.34 11.27Q89.11 11.59 89.27 12.20Q89.44 12.81 89.53 13.14L89.53 13.14Q89.70 13.73 89.55 14.20Q89.41 14.66 89.46 15.11L89.46 15.11Q89.58 16.30 89.18 16.82L89.18 16.82Q88.99 17.08 88.59 17.31L88.59 17.31Q87.80 17.76 87.42 18.39L87.42 18.39Q87.23 18.77 86.98 18.84L86.98 18.84Q86.84 18.88 86.55 18.85Q86.27 18.81 85.95 18.78Q85.62 18.74 85.31 18.71Q85.01 18.67 84.89 18.71Q84.77 18.74 84.68 18.85Q84.59 18.95 84.47 19.07L84.47 19.07Q83.84 19.70 83.16 18.93L83.16 18.93Q83.02 18.77 82.89 18.61Q82.76 18.46 82.64 18.38Q82.52 18.30 82.32 18.21Q82.13 18.13 81.89 17.97L81.89 17.97Q80.88 17.36 80.63 16L80.63 16Q80.48 15.34 80.39 14.30Q80.30 13.26 80.24 12.98Q80.18 12.70 79.95 12.36Q79.71 12.02 79.64 11.72Q79.57 11.43 79.62 11.10Q79.66 10.77 79.73 10.35L79.73 10.35Q79.92 9.23 79.83 8.38Q79.73 7.54 79.79 7.07Q79.85 6.60 79.80 6.47Q79.76 6.34 79.65 6.23Q79.55 6.11 79.59 5.73Q79.64 5.36 79.64 5.01Q79.64 4.66 79.64 4.28L79.64 4.28Q79.71 2.69 80.13 2.36L80.13 2.36Q80.48 2.10 80.86 2.08L80.86 2.08Q81.45 2.05 81.74 1.87Q82.03 1.68 82.22 1.56L82.22 1.56Q83.39 0.91 83.67 2.50L83.67 2.50Q83.86 3.48 83.91 5.24ZM102.59 18.84L102.59 18.84Q101.81 18.84 101.88 17.52L101.88 17.52Q101.93 16.63 101.89 15.95Q101.86 15.27 101.60 14.52L101.60 14.52Q101.34 13.77 101.25 13.16Q101.16 12.55 101.39 11.83L101.39 11.83Q101.72 10.80 101.44 9.53L101.44 9.53Q101.39 9.32 101.39 9.10Q101.39 8.88 101.37 8.69L101.37 8.69Q101.34 8.24 101.13 8.24L101.13 8.24Q100.95 8.24 100.88 8.57L100.88 8.57Q100.73 9.41 100.55 9.88L100.55 9.88Q100.03 11.10 100.15 11.90L100.15 11.90Q100.45 13.07 100.10 13.70L100.10 13.70Q99.94 14.01 99.70 14.15Q99.47 14.29 99.40 14.39Q99.33 14.50 99.34 14.77Q99.35 15.04 99.21 15.20Q99.07 15.37 99.04 15.55Q99 15.74 98.95 15.91L98.95 15.91Q98.84 16.33 98.44 16.28Q98.04 16.23 97.89 15.79Q97.73 15.34 97.65 14.76Q97.57 14.17 97.49 13.59Q97.41 13 97.18 12.70Q96.96 12.39 96.88 12.09Q96.80 11.78 96.75 11.45L96.75 11.45Q96.63 10.66 96.45 10.35L96.45 10.35Q96.28 10.07 96.19 9.30Q96.09 8.52 96.01 8.24Q95.93 7.96 95.72 7.96L95.72 7.96Q95.48 7.98 95.46 8.31Q95.44 8.64 95.53 8.85L95.53 8.85Q95.63 9.06 95.55 9.60Q95.48 10.14 95.58 10.54Q95.67 10.94 95.77 11.25Q95.86 11.57 95.93 11.92L95.93 11.92Q96.16 12.88 96.04 13.55Q95.91 14.22 95.88 14.58Q95.86 14.95 95.59 15.11Q95.32 15.27 95.26 15.45Q95.20 15.63 95.18 15.85Q95.16 16.07 95.13 16.32Q95.11 16.56 94.97 16.91L94.97 16.91Q94.66 17.66 94.77 18.02Q94.88 18.37 94.65 18.77Q94.43 19.16 94.02 19.20Q93.61 19.23 93.36 19.05Q93.12 18.86 92.93 18.58L92.93 18.58Q92.16 17.31 92.32 15.72L92.32 15.72Q92.34 15.37 92.38 15.02Q92.41 14.66 92.37 14.15L92.37 14.15Q92.30 12.88 91.78 12.16L91.78 12.16Q91.43 11.66 91.38 10.96L91.38 10.96Q91.27 9.74 91.52 9.23L91.52 9.23Q91.64 8.99 91.64 8.49Q91.64 7.98 91.63 7.76Q91.62 7.54 91.65 7.43Q91.69 7.33 91.70 7.06Q91.71 6.79 91.71 6.44L91.71 6.44Q91.69 5.80 91.55 5.28Q91.41 4.75 91.37 4.36Q91.34 3.98 91.38 3.60L91.38 3.60Q91.45 2.76 91.68 2.41Q91.90 2.05 92.09 2.00Q92.27 1.94 92.51 1.94Q92.74 1.94 92.91 1.86Q93.07 1.77 93.26 1.70L93.26 1.70Q93.66 1.54 94.03 1.68Q94.41 1.82 94.68 1.77Q94.95 1.73 95.18 1.66L95.18 1.66Q95.79 1.42 96.11 1.54Q96.42 1.66 96.68 1.94Q96.94 2.22 96.97 2.39Q97.01 2.57 97.08 2.64Q97.15 2.71 97.24 2.78L97.24 2.78Q97.43 2.95 97.43 3.30L97.43 3.30Q97.43 3.81 97.71 4.68L97.71 4.68Q98.20 6.32 98.65 6.46L98.65 6.46Q98.74 6.48 98.98 6.32Q99.21 6.16 99.30 5.83L99.30 5.83Q99.45 5.27 99.40 4.97Q99.35 4.68 99.48 4.52Q99.61 4.35 99.62 4.21Q99.63 4.07 99.66 3.84Q99.68 3.60 99.75 3.30L99.75 3.30Q99.94 2.52 100.29 2.13Q100.64 1.73 101.02 1.66Q101.39 1.59 101.78 1.62Q102.16 1.66 102.55 1.69Q102.94 1.73 103.34 1.56L103.34 1.56Q104.39 1.09 104.79 1.54L104.79 1.54Q104.91 1.66 105.01 1.70Q105.12 1.75 105.21 1.80L105.21 1.80Q105.40 1.94 105.43 2.23Q105.47 2.52 105.52 2.63Q105.56 2.73 105.61 2.83L105.61 2.83Q105.87 3.44 105.94 4.94L105.94 4.94Q106.01 7.40 105.84 7.75L105.84 7.75Q106.01 8.71 105.68 9.11L105.68 9.11Q105.61 9.18 105.54 9.25L105.54 9.25Q105.12 9.67 105.02 10.38L105.02 10.38Q104.98 10.66 105.04 10.84Q105.09 11.03 105.09 11.24L105.09 11.24Q105.09 11.45 105.08 11.62Q105.07 11.78 105.07 11.97L105.07 11.97Q105.02 12.65 105.06 12.95Q105.09 13.26 105.06 13.40Q105.02 13.54 104.98 13.66L104.98 13.66Q104.86 14.01 104.91 14.25Q104.95 14.50 104.91 14.64Q104.86 14.78 104.79 14.92L104.79 14.92Q104.60 15.32 104.64 15.94Q104.67 16.56 104.59 16.98Q104.51 17.41 104.51 17.85L104.51 17.85Q104.46 19.09 104.18 19L104.18 19Q104.06 18.95 103.98 19.12Q103.90 19.28 103.84 19.54Q103.78 19.80 103.52 19.71Q103.27 19.63 103.18 19.33Q103.10 19.02 102.97 18.93Q102.84 18.84 102.59 18.84ZM107.63 14.59L107.63 14.59L107.60 13.40Q107.60 13.07 107.63 12.79L107.63 12.79Q107.65 12.48 107.58 12.04L107.58 12.04Q107.46 11.27 107.47 10.90Q107.48 10.54 107.47 10.32Q107.46 10.09 107.41 9.91L107.41 9.91Q107.34 9.63 107.07 9.02Q106.80 8.41 106.80 7.70Q106.80 7 107.11 6.58L107.11 6.58Q107.39 6.16 107.32 5.71Q107.25 5.27 107.21 4.76Q107.18 4.26 107.20 3.73Q107.23 3.20 107.44 2.71L107.44 2.71Q107.95 1.52 109.50 1.56L109.50 1.56Q110.46 1.59 111.16 1.75Q111.87 1.91 112.20 1.89Q112.52 1.87 113.20 1.66L113.20 1.66Q114.19 1.28 114.77 1.70L114.77 1.70Q114.94 1.82 115.09 1.88Q115.24 1.94 115.36 2.05L115.36 2.05Q115.76 2.50 115.59 4L115.59 4Q115.55 4.45 115.50 4.89L115.50 4.89Q115.38 5.95 115.50 6.46Q115.62 6.98 115.63 7.36Q115.64 7.75 115.59 8.05L115.59 8.05Q115.45 8.73 115.05 8.73L115.05 8.73Q114.70 8.71 114.55 8.51Q114.40 8.31 114.30 8.07Q114.21 7.82 114.11 7.62Q114 7.42 113.65 7.42L113.65 7.42Q112.62 7.42 112.28 7.20Q111.94 6.98 111.68 6.94Q111.42 6.91 111.19 7L111.19 7Q110.70 7.21 110.61 7.77Q110.53 8.34 110.51 8.76Q110.48 9.18 110.51 9.53L110.51 9.53Q110.55 10.35 110.82 10.46Q111.09 10.56 111.28 10.48Q111.47 10.40 111.66 10.28L111.66 10.28Q112.22 9.91 112.82 9.92Q113.41 9.93 113.71 10.40Q114 10.87 113.95 11.30Q113.91 11.73 113.87 12.16Q113.84 12.58 113.77 12.95L113.77 12.95Q113.44 14.41 112.41 13.52L112.41 13.52Q111.07 13.42 110.74 13.84L110.74 13.84Q110.67 13.96 110.60 14.34Q110.53 14.71 110.58 15.13L110.58 15.13Q110.70 16.23 111.63 16.30L111.63 16.30Q112.24 16.35 112.75 16.14Q113.25 15.93 113.41 15.67L113.41 15.67Q113.55 15.39 113.77 15.36Q113.98 15.32 114.14 15.29Q114.30 15.25 114.47 15.25Q114.63 15.25 114.80 15.30L114.80 15.30Q115.22 15.44 115.30 15.95Q115.38 16.47 115.20 16.89Q115.01 17.31 114.95 17.65Q114.89 17.99 114.84 18.16Q114.80 18.32 114.57 18.57Q114.35 18.81 114.22 18.98Q114.09 19.14 113.81 18.91L113.81 18.91Q113.30 18.51 112.57 19.38L112.57 19.38Q112.38 19.63 112.17 19.75Q111.96 19.87 111.52 19.84L111.52 19.84Q111.07 19.82 110.81 19.61Q110.55 19.40 110.34 19.19L110.34 19.19Q109.99 18.74 109.13 18.86L109.13 18.86Q108.61 18.93 108.28 18.41L108.28 18.41Q108.21 18.34 108.18 18.16Q108.14 17.97 108.09 17.73L108.09 17.73Q107.93 17.13 107.80 16.95Q107.67 16.77 107.66 16.49Q107.65 16.21 107.60 15.89Q107.55 15.58 107.53 15.43Q107.51 15.27 107.57 15.06Q107.63 14.85 107.63 14.59Z"></path></svg><svg x="105.04499969482421" y="163.2972002029419" style="fill: rgb(15, 88, 91);"><path d="M0.09 1.47L1.38 1.47L3.60 5.75L5.82 1.47L7.10 1.47L4.16 6.81L4.16 10L3.03 10L3.03 6.81L0.09 1.47ZM7.37 6.90L7.37 6.90L7.37 6.77Q7.37 6.08 7.56 5.49Q7.76 4.90 8.14 4.47Q8.51 4.03 9.05 3.79Q9.58 3.54 10.24 3.54L10.24 3.54Q10.91 3.54 11.45 3.79Q11.98 4.03 12.36 4.47Q12.74 4.90 12.94 5.49Q13.14 6.08 13.14 6.77L13.14 6.77L13.14 6.90Q13.14 7.59 12.94 8.17Q12.74 8.76 12.36 9.19Q11.98 9.63 11.45 9.87Q10.92 10.12 10.25 10.12L10.25 10.12Q9.59 10.12 9.05 9.87Q8.52 9.63 8.14 9.19Q7.76 8.76 7.56 8.17Q7.37 7.59 7.37 6.90ZM8.45 6.77L8.45 6.77L8.45 6.90Q8.45 7.38 8.56 7.79Q8.67 8.21 8.90 8.54Q9.12 8.86 9.46 9.04Q9.80 9.23 10.25 9.23L10.25 9.23Q10.70 9.23 11.04 9.04Q11.37 8.86 11.60 8.54Q11.82 8.21 11.93 7.79Q12.05 7.38 12.05 6.90L12.05 6.90L12.05 6.77Q12.05 6.30 11.93 5.88Q11.82 5.46 11.59 5.13Q11.37 4.81 11.03 4.62Q10.69 4.43 10.24 4.43L10.24 4.43Q9.80 4.43 9.46 4.62Q9.12 4.81 8.90 5.13Q8.67 5.46 8.56 5.88Q8.45 6.30 8.45 6.77ZM18.43 10L18.38 8.54L18.38 3.66L19.46 3.66L19.46 10L18.43 10ZM18.58 7.20L18.58 7.20L19.03 7.19Q19.03 7.82 18.90 8.36Q18.77 8.89 18.47 9.29Q18.18 9.68 17.71 9.90Q17.23 10.12 16.55 10.12L16.55 10.12Q16.09 10.12 15.71 9.98Q15.32 9.85 15.05 9.57Q14.77 9.29 14.62 8.83Q14.47 8.38 14.47 7.75L14.47 7.75L14.47 3.66L15.56 3.66L15.56 7.76Q15.56 8.19 15.65 8.47Q15.75 8.75 15.92 8.91Q16.08 9.07 16.29 9.13Q16.50 9.20 16.72 9.20L16.72 9.20Q17.41 9.20 17.82 8.93Q18.22 8.66 18.40 8.21Q18.58 7.76 18.58 7.20ZM22.17 3.66L22.20 4.66L22.20 10L21.11 10L21.11 3.66L22.17 3.66ZM24.18 3.63L24.18 3.63L24.17 4.63Q24.04 4.60 23.92 4.59Q23.79 4.59 23.64 4.59L23.64 4.59Q23.27 4.59 22.98 4.70Q22.69 4.82 22.49 5.03Q22.29 5.24 22.18 5.53Q22.07 5.82 22.03 6.17L22.03 6.17L21.73 6.34Q21.73 5.77 21.84 5.27Q21.96 4.76 22.20 4.37Q22.44 3.98 22.81 3.76Q23.18 3.54 23.70 3.54L23.70 3.54Q23.81 3.54 23.96 3.57Q24.12 3.60 24.18 3.63ZM34.89 5.46L34.89 5.46L34.89 6.00Q34.89 6.96 34.65 7.73Q34.41 8.49 33.96 9.02Q33.50 9.55 32.87 9.84Q32.24 10.12 31.46 10.12L31.46 10.12Q30.71 10.12 30.08 9.84Q29.45 9.55 28.99 9.02Q28.53 8.49 28.28 7.73Q28.03 6.96 28.03 6.00L28.03 6.00L28.03 5.46Q28.03 4.50 28.27 3.75Q28.52 2.99 28.98 2.45Q29.44 1.91 30.07 1.63Q30.70 1.35 31.45 1.35L31.45 1.35Q32.23 1.35 32.86 1.63Q33.49 1.91 33.95 2.45Q34.40 2.99 34.64 3.75Q34.89 4.50 34.89 5.46ZM33.77 6.00L33.77 6.00L33.77 5.45Q33.77 4.69 33.61 4.11Q33.46 3.52 33.16 3.12Q32.86 2.72 32.43 2.52Q32.00 2.31 31.45 2.31L31.45 2.31Q30.93 2.31 30.50 2.52Q30.08 2.72 29.77 3.12Q29.47 3.52 29.31 4.11Q29.14 4.69 29.14 5.45L29.14 5.45L29.14 6.00Q29.14 6.77 29.31 7.36Q29.47 7.95 29.78 8.35Q30.09 8.75 30.51 8.96Q30.94 9.16 31.46 9.16L31.46 9.16Q32.02 9.16 32.44 8.96Q32.87 8.75 33.17 8.35Q33.46 7.95 33.62 7.36Q33.77 6.77 33.77 6.00ZM37.44 3.66L37.49 5.01L37.49 10L36.41 10L36.41 3.66L37.44 3.66ZM37.24 6.59L37.24 6.59L36.79 6.57Q36.79 5.92 36.98 5.37Q37.17 4.81 37.51 4.40Q37.85 3.99 38.32 3.77Q38.79 3.54 39.36 3.54L39.36 3.54Q39.83 3.54 40.21 3.67Q40.58 3.79 40.85 4.07Q41.12 4.35 41.26 4.78Q41.40 5.22 41.40 5.85L41.40 5.85L41.40 10L40.31 10L40.31 5.83Q40.31 5.34 40.16 5.03Q40.01 4.73 39.73 4.59Q39.45 4.46 39.04 4.46L39.04 4.46Q38.64 4.46 38.31 4.63Q37.97 4.80 37.74 5.10Q37.50 5.39 37.37 5.78Q37.24 6.16 37.24 6.59ZM45.67 10.12L45.67 10.12Q45.01 10.12 44.47 9.89Q43.93 9.67 43.55 9.26Q43.17 8.85 42.96 8.28Q42.76 7.72 42.76 7.05L42.76 7.05L42.76 6.81Q42.76 6.03 42.98 5.43Q43.21 4.82 43.61 4.40Q44.00 3.98 44.50 3.76Q44.99 3.54 45.53 3.54L45.53 3.54Q46.21 3.54 46.70 3.78Q47.20 4.01 47.51 4.43Q47.83 4.85 47.98 5.42Q48.13 5.98 48.13 6.65L48.13 6.65L48.13 7.13L43.40 7.13L43.40 6.25L47.05 6.25L47.05 6.17Q47.03 5.75 46.88 5.35Q46.73 4.95 46.41 4.69Q46.08 4.43 45.53 4.43L45.53 4.43Q45.16 4.43 44.85 4.59Q44.54 4.74 44.31 5.05Q44.09 5.35 43.97 5.79Q43.85 6.23 43.85 6.81L43.85 6.81L43.85 7.05Q43.85 7.50 43.97 7.90Q44.10 8.29 44.34 8.59Q44.58 8.89 44.93 9.06Q45.28 9.23 45.73 9.23L45.73 9.23Q46.30 9.23 46.70 9.00Q47.10 8.76 47.40 8.37L47.40 8.37L48.05 8.89Q47.85 9.20 47.53 9.48Q47.21 9.77 46.75 9.94Q46.29 10.12 45.67 10.12ZM48.80 5.93L51.66 5.93L51.66 6.82L48.80 6.82L48.80 5.93ZM57.43 7.84L57.43 7.84Q57.43 7.54 57.34 7.31Q57.25 7.08 57.02 6.89Q56.79 6.71 56.40 6.54Q56.00 6.37 55.40 6.19L55.40 6.19Q54.77 6.00 54.26 5.77Q53.75 5.54 53.38 5.24Q53.02 4.94 52.83 4.56Q52.63 4.17 52.63 3.67L52.63 3.67Q52.63 3.17 52.84 2.75Q53.04 2.33 53.43 2.02Q53.81 1.70 54.35 1.53Q54.88 1.35 55.54 1.35L55.54 1.35Q56.50 1.35 57.17 1.72Q57.84 2.08 58.19 2.67Q58.54 3.26 58.54 3.93L58.54 3.93L57.42 3.93Q57.42 3.45 57.21 3.08Q57.01 2.71 56.59 2.49Q56.17 2.28 55.54 2.28L55.54 2.28Q54.93 2.28 54.54 2.46Q54.15 2.64 53.96 2.95Q53.77 3.26 53.77 3.66L53.77 3.66Q53.77 3.93 53.88 4.15Q53.99 4.37 54.24 4.56Q54.48 4.74 54.86 4.90Q55.24 5.06 55.76 5.21L55.76 5.21Q56.49 5.41 57.02 5.66Q57.54 5.92 57.89 6.23Q58.23 6.54 58.40 6.94Q58.56 7.33 58.56 7.83L58.56 7.83Q58.56 8.35 58.35 8.78Q58.14 9.20 57.75 9.50Q57.36 9.79 56.81 9.96Q56.26 10.12 55.59 10.12L55.59 10.12Q55.00 10.12 54.42 9.95Q53.85 9.79 53.39 9.46Q52.92 9.13 52.64 8.65Q52.37 8.17 52.37 7.53L52.37 7.53L53.49 7.53Q53.49 7.97 53.66 8.28Q53.83 8.59 54.13 8.80Q54.42 9.00 54.80 9.10Q55.18 9.20 55.59 9.20L55.59 9.20Q56.18 9.20 56.59 9.03Q57 8.87 57.21 8.56Q57.43 8.26 57.43 7.84ZM59.07 3.66L62.50 3.66L62.50 4.49L59.07 4.49L59.07 3.66ZM60.23 8.42L60.23 2.12L61.31 2.12L61.31 8.43Q61.31 8.75 61.41 8.92Q61.51 9.08 61.67 9.13Q61.83 9.19 62.01 9.19L62.01 9.19Q62.14 9.19 62.29 9.16Q62.44 9.13 62.52 9.12L62.52 9.12L62.53 10Q62.40 10.04 62.19 10.08Q61.98 10.12 61.69 10.12L61.69 10.12Q61.29 10.12 60.96 9.96Q60.62 9.80 60.42 9.43Q60.23 9.06 60.23 8.42L60.23 8.42ZM63.36 6.90L63.36 6.90L63.36 6.77Q63.36 6.08 63.56 5.49Q63.76 4.90 64.14 4.47Q64.51 4.03 65.04 3.79Q65.58 3.54 66.24 3.54L66.24 3.54Q66.91 3.54 67.44 3.79Q67.98 4.03 68.36 4.47Q68.74 4.90 68.94 5.49Q69.13 6.08 69.13 6.77L69.13 6.77L69.13 6.90Q69.13 7.59 68.94 8.17Q68.74 8.76 68.36 9.19Q67.98 9.63 67.45 9.87Q66.92 10.12 66.25 10.12L66.25 10.12Q65.58 10.12 65.05 9.87Q64.52 9.63 64.14 9.19Q63.76 8.76 63.56 8.17Q63.36 7.59 63.36 6.90ZM64.45 6.77L64.45 6.77L64.45 6.90Q64.45 7.38 64.56 7.79Q64.67 8.21 64.90 8.54Q65.12 8.86 65.46 9.04Q65.80 9.23 66.25 9.23L66.25 9.23Q66.70 9.23 67.03 9.04Q67.37 8.86 67.59 8.54Q67.82 8.21 67.93 7.79Q68.04 7.38 68.04 6.90L68.04 6.90L68.04 6.77Q68.04 6.30 67.93 5.88Q67.82 5.46 67.59 5.13Q67.37 4.81 67.03 4.62Q66.69 4.43 66.24 4.43L66.24 4.43Q65.79 4.43 65.46 4.62Q65.12 4.81 64.90 5.13Q64.67 5.46 64.56 5.88Q64.45 6.30 64.45 6.77ZM71.48 3.66L71.58 4.88L71.58 12.44L70.49 12.44L70.49 3.66L71.48 3.66ZM75.85 6.78L75.85 6.78L75.85 6.90Q75.85 7.59 75.69 8.18Q75.52 8.77 75.21 9.20Q74.89 9.64 74.44 9.88Q73.98 10.12 73.39 10.12L73.39 10.12Q72.79 10.12 72.32 9.92Q71.86 9.72 71.54 9.34Q71.21 8.96 71.02 8.42Q70.83 7.89 70.76 7.22L70.76 7.22L70.76 6.57Q70.83 5.86 71.03 5.31Q71.22 4.75 71.54 4.35Q71.86 3.96 72.32 3.75Q72.77 3.54 73.37 3.54L73.37 3.54Q73.97 3.54 74.43 3.77Q74.89 4.01 75.21 4.43Q75.53 4.86 75.69 5.46Q75.85 6.05 75.85 6.78ZM74.76 6.90L74.76 6.90L74.76 6.78Q74.76 6.30 74.66 5.88Q74.56 5.46 74.35 5.15Q74.14 4.83 73.82 4.64Q73.50 4.46 73.05 4.46L73.05 4.46Q72.64 4.46 72.34 4.60Q72.04 4.74 71.83 4.98Q71.62 5.21 71.49 5.51Q71.36 5.82 71.29 6.14L71.29 6.14L71.29 7.66Q71.41 8.07 71.62 8.43Q71.83 8.79 72.18 9.01Q72.53 9.23 73.07 9.23L73.07 9.23Q73.51 9.23 73.83 9.04Q74.14 8.86 74.35 8.54Q74.56 8.21 74.66 7.79Q74.76 7.38 74.76 6.90ZM85.52 7.29L85.52 7.29L86.65 7.29Q86.56 8.10 86.19 8.73Q85.81 9.37 85.13 9.75Q84.44 10.12 83.41 10.12L83.41 10.12Q82.66 10.12 82.05 9.84Q81.44 9.55 81 9.04Q80.56 8.52 80.32 7.79Q80.09 7.06 80.09 6.16L80.09 6.16L80.09 5.31Q80.09 4.42 80.32 3.69Q80.56 2.96 81.01 2.44Q81.46 1.91 82.09 1.63Q82.72 1.35 83.51 1.35L83.51 1.35Q84.48 1.35 85.15 1.71Q85.82 2.08 86.19 2.72Q86.56 3.36 86.65 4.21L86.65 4.21L85.52 4.21Q85.44 3.61 85.22 3.18Q85.00 2.75 84.59 2.51Q84.18 2.28 83.51 2.28L83.51 2.28Q82.95 2.28 82.51 2.49Q82.08 2.71 81.79 3.11Q81.50 3.51 81.36 4.06Q81.21 4.62 81.21 5.30L81.21 5.30L81.21 6.16Q81.21 6.79 81.34 7.34Q81.47 7.89 81.74 8.31Q82.01 8.72 82.43 8.96Q82.85 9.20 83.41 9.20L83.41 9.20Q84.13 9.20 84.56 8.97Q84.99 8.74 85.21 8.31Q85.43 7.88 85.52 7.29ZM91.76 8.92L91.76 8.92L91.76 5.65Q91.76 5.28 91.61 5.00Q91.46 4.72 91.16 4.57Q90.86 4.42 90.42 4.42L90.42 4.42Q90.01 4.42 89.70 4.56Q89.40 4.70 89.22 4.93Q89.05 5.15 89.05 5.42L89.05 5.42L87.97 5.42Q87.97 5.08 88.14 4.74Q88.32 4.41 88.65 4.14Q88.98 3.87 89.45 3.70Q89.91 3.54 90.49 3.54L90.49 3.54Q91.18 3.54 91.71 3.78Q92.24 4.01 92.54 4.48Q92.84 4.96 92.84 5.66L92.84 5.66L92.84 8.62Q92.84 8.93 92.90 9.29Q92.95 9.65 93.06 9.91L93.06 9.91L93.06 10L91.93 10Q91.85 9.81 91.80 9.50Q91.76 9.19 91.76 8.92ZM90.69 6.16L91.95 6.16L91.96 6.92L90.86 6.92Q90.40 6.92 90.04 6.99Q89.67 7.06 89.43 7.21Q89.18 7.36 89.05 7.58Q88.92 7.80 88.92 8.09L88.92 8.09Q88.92 8.39 89.06 8.63Q89.19 8.88 89.46 9.02Q89.74 9.17 90.13 9.17L90.13 9.17Q90.63 9.17 91.01 8.96Q91.39 8.75 91.62 8.44Q91.85 8.14 91.86 7.85L91.86 7.85L92.33 8.37Q92.29 8.62 92.10 8.92Q91.92 9.21 91.62 9.49Q91.32 9.76 90.91 9.94Q90.49 10.12 89.98 10.12L89.98 10.12Q89.33 10.12 88.85 9.87Q88.37 9.61 88.10 9.19Q87.83 8.76 87.83 8.24L87.83 8.24Q87.83 7.73 88.03 7.34Q88.23 6.95 88.61 6.69Q88.98 6.43 89.51 6.29Q90.04 6.16 90.69 6.16L90.69 6.16ZM95.60 3.66L95.63 4.66L95.63 10L94.55 10L94.55 3.66L95.60 3.66ZM97.61 3.63L97.61 3.63L97.61 4.63Q97.47 4.60 97.35 4.59Q97.23 4.59 97.08 4.59L97.08 4.59Q96.70 4.59 96.42 4.70Q96.13 4.82 95.93 5.03Q95.73 5.24 95.62 5.53Q95.50 5.82 95.47 6.17L95.47 6.17L95.16 6.34Q95.16 5.77 95.28 5.27Q95.39 4.76 95.63 4.37Q95.87 3.98 96.24 3.76Q96.62 3.54 97.13 3.54L97.13 3.54Q97.25 3.54 97.40 3.57Q97.55 3.60 97.61 3.63ZM101.13 10.12L101.13 10.12Q100.47 10.12 99.93 9.89Q99.40 9.67 99.01 9.26Q98.63 8.85 98.43 8.28Q98.22 7.72 98.22 7.05L98.22 7.05L98.22 6.81Q98.22 6.03 98.45 5.43Q98.68 4.82 99.07 4.40Q99.46 3.98 99.96 3.76Q100.46 3.54 100.99 3.54L100.99 3.54Q101.67 3.54 102.17 3.78Q102.66 4.01 102.98 4.43Q103.29 4.85 103.45 5.42Q103.60 5.98 103.60 6.65L103.60 6.65L103.60 7.13L98.87 7.13L98.87 6.25L102.52 6.25L102.52 6.17Q102.49 5.75 102.34 5.35Q102.19 4.95 101.87 4.69Q101.55 4.43 100.99 4.43L100.99 4.43Q100.62 4.43 100.31 4.59Q100.00 4.74 99.78 5.05Q99.56 5.35 99.43 5.79Q99.31 6.23 99.31 6.81L99.31 6.81L99.31 7.05Q99.31 7.50 99.44 7.90Q99.56 8.29 99.81 8.59Q100.05 8.89 100.40 9.06Q100.75 9.23 101.19 9.23L101.19 9.23Q101.77 9.23 102.16 9.00Q102.56 8.76 102.86 8.37L102.86 8.37L103.52 8.89Q103.31 9.20 103.00 9.48Q102.68 9.77 102.22 9.94Q101.76 10.12 101.13 10.12ZM107.50 10.12L107.50 10.12Q106.83 10.12 106.30 9.89Q105.76 9.67 105.38 9.26Q104.99 8.85 104.79 8.28Q104.58 7.72 104.58 7.05L104.58 7.05L104.58 6.81Q104.58 6.03 104.81 5.43Q105.04 4.82 105.43 4.40Q105.83 3.98 106.32 3.76Q106.82 3.54 107.36 3.54L107.36 3.54Q108.04 3.54 108.53 3.78Q109.03 4.01 109.34 4.43Q109.66 4.85 109.81 5.42Q109.96 5.98 109.96 6.65L109.96 6.65L109.96 7.13L105.23 7.13L105.23 6.25L108.88 6.25L108.88 6.17Q108.86 5.75 108.71 5.35Q108.56 4.95 108.23 4.69Q107.91 4.43 107.36 4.43L107.36 4.43Q106.99 4.43 106.68 4.59Q106.37 4.74 106.14 5.05Q105.92 5.35 105.80 5.79Q105.67 6.23 105.67 6.81L105.67 6.81L105.67 7.05Q105.67 7.50 105.80 7.90Q105.93 8.29 106.17 8.59Q106.41 8.89 106.76 9.06Q107.11 9.23 107.55 9.23L107.55 9.23Q108.13 9.23 108.53 9.00Q108.93 8.76 109.22 8.37L109.22 8.37L109.88 8.89Q109.68 9.20 109.36 9.48Q109.04 9.77 108.58 9.94Q108.12 10.12 107.50 10.12ZM112.28 3.66L112.31 4.66L112.31 10L111.23 10L111.23 3.66L112.28 3.66ZM114.29 3.63L114.29 3.63L114.29 4.63Q114.15 4.60 114.03 4.59Q113.91 4.59 113.76 4.59L113.76 4.59Q113.38 4.59 113.10 4.70Q112.81 4.82 112.61 5.03Q112.41 5.24 112.30 5.53Q112.18 5.82 112.15 6.17L112.15 6.17L111.84 6.34Q111.84 5.77 111.96 5.27Q112.07 4.76 112.31 4.37Q112.55 3.98 112.92 3.76Q113.30 3.54 113.81 3.54L113.81 3.54Q113.93 3.54 114.08 3.57Q114.23 3.60 114.29 3.63ZM123.59 7.29L123.59 7.29L124.71 7.29Q124.62 8.10 124.25 8.73Q123.87 9.37 123.19 9.75Q122.50 10.12 121.48 10.12L121.48 10.12Q120.73 10.12 120.11 9.84Q119.50 9.55 119.06 9.04Q118.62 8.52 118.39 7.79Q118.15 7.06 118.15 6.16L118.15 6.16L118.15 5.31Q118.15 4.42 118.39 3.69Q118.62 2.96 119.07 2.44Q119.52 1.91 120.15 1.63Q120.79 1.35 121.58 1.35L121.58 1.35Q122.54 1.35 123.21 1.71Q123.88 2.08 124.25 2.72Q124.62 3.36 124.71 4.21L124.71 4.21L123.59 4.21Q123.50 3.61 123.28 3.18Q123.06 2.75 122.65 2.51Q122.24 2.28 121.58 2.28L121.58 2.28Q121.01 2.28 120.58 2.49Q120.15 2.71 119.86 3.11Q119.57 3.51 119.42 4.06Q119.27 4.62 119.27 5.30L119.27 5.30L119.27 6.16Q119.27 6.79 119.41 7.34Q119.54 7.89 119.81 8.31Q120.08 8.72 120.49 8.96Q120.91 9.20 121.48 9.20L121.48 9.20Q122.20 9.20 122.63 8.97Q123.05 8.74 123.27 8.31Q123.49 7.88 123.59 7.29ZM129.82 8.92L129.82 8.92L129.82 5.65Q129.82 5.28 129.67 5.00Q129.52 4.72 129.22 4.57Q128.92 4.42 128.48 4.42L128.48 4.42Q128.07 4.42 127.77 4.56Q127.46 4.70 127.29 4.93Q127.11 5.15 127.11 5.42L127.11 5.42L126.03 5.42Q126.03 5.08 126.21 4.74Q126.38 4.41 126.71 4.14Q127.04 3.87 127.51 3.70Q127.97 3.54 128.55 3.54L128.55 3.54Q129.24 3.54 129.77 3.78Q130.30 4.01 130.60 4.48Q130.90 4.96 130.90 5.66L130.90 5.66L130.90 8.62Q130.90 8.93 130.96 9.29Q131.02 9.65 131.13 9.91L131.13 9.91L131.13 10L130.00 10Q129.91 9.81 129.87 9.50Q129.82 9.19 129.82 8.92ZM128.75 6.16L130.01 6.16L130.02 6.92L128.92 6.92Q128.46 6.92 128.10 6.99Q127.73 7.06 127.49 7.21Q127.24 7.36 127.11 7.58Q126.98 7.80 126.98 8.09L126.98 8.09Q126.98 8.39 127.12 8.63Q127.25 8.88 127.53 9.02Q127.80 9.17 128.20 9.17L128.20 9.17Q128.70 9.17 129.08 8.96Q129.46 8.75 129.68 8.44Q129.91 8.14 129.93 7.85L129.93 7.85L130.39 8.37Q130.35 8.62 130.17 8.92Q129.98 9.21 129.68 9.49Q129.38 9.76 128.97 9.94Q128.55 10.12 128.04 10.12L128.04 10.12Q127.39 10.12 126.91 9.87Q126.43 9.61 126.16 9.19Q125.89 8.76 125.89 8.24L125.89 8.24Q125.89 7.73 126.09 7.34Q126.29 6.95 126.67 6.69Q127.04 6.43 127.57 6.29Q128.10 6.16 128.75 6.16L128.75 6.16ZM131.84 3.66L135.26 3.66L135.26 4.49L131.84 4.49L131.84 3.66ZM133.00 8.42L133.00 2.12L134.08 2.12L134.08 8.43Q134.08 8.75 134.18 8.92Q134.28 9.08 134.44 9.13Q134.60 9.19 134.78 9.19L134.78 9.19Q134.91 9.19 135.06 9.16Q135.21 9.13 135.29 9.12L135.29 9.12L135.29 10Q135.16 10.04 134.96 10.08Q134.75 10.12 134.46 10.12L134.46 10.12Q134.06 10.12 133.72 9.96Q133.39 9.80 133.19 9.43Q133.00 9.06 133.00 8.42L133.00 8.42ZM140.27 8.92L140.27 8.92L140.27 5.65Q140.27 5.28 140.12 5.00Q139.97 4.72 139.68 4.57Q139.38 4.42 138.94 4.42L138.94 4.42Q138.53 4.42 138.22 4.56Q137.91 4.70 137.74 4.93Q137.57 5.15 137.57 5.42L137.57 5.42L136.48 5.42Q136.48 5.08 136.66 4.74Q136.83 4.41 137.17 4.14Q137.50 3.87 137.96 3.70Q138.43 3.54 139.00 3.54L139.00 3.54Q139.69 3.54 140.22 3.78Q140.75 4.01 141.06 4.48Q141.36 4.96 141.36 5.66L141.36 5.66L141.36 8.62Q141.36 8.93 141.41 9.29Q141.47 9.65 141.58 9.91L141.58 9.91L141.58 10L140.45 10Q140.37 9.81 140.32 9.50Q140.27 9.19 140.27 8.92ZM139.20 6.16L140.46 6.16L140.47 6.92L139.38 6.92Q138.91 6.92 138.55 6.99Q138.19 7.06 137.94 7.21Q137.70 7.36 137.57 7.58Q137.44 7.80 137.44 8.09L137.44 8.09Q137.44 8.39 137.57 8.63Q137.71 8.88 137.98 9.02Q138.25 9.17 138.65 9.17L138.65 9.17Q139.15 9.17 139.53 8.96Q139.91 8.75 140.14 8.44Q140.36 8.14 140.38 7.85L140.38 7.85L140.84 8.37Q140.80 8.62 140.62 8.92Q140.44 9.21 140.14 9.49Q139.83 9.76 139.42 9.94Q139.01 10.12 138.49 10.12L138.49 10.12Q137.85 10.12 137.36 9.87Q136.88 9.61 136.61 9.19Q136.35 8.76 136.35 8.24L136.35 8.24Q136.35 7.73 136.55 7.34Q136.75 6.95 137.12 6.69Q137.50 6.43 138.02 6.29Q138.55 6.16 139.20 6.16L139.20 6.16ZM143.15 1L144.24 1L144.24 10L143.15 10L143.15 1ZM147.31 10.57L147.76 9.34L149.53 3.66L150.69 3.66L148.14 10.98Q148.05 11.21 147.91 11.49Q147.77 11.76 147.54 12.00Q147.32 12.25 147.01 12.41Q146.70 12.56 146.26 12.56L146.26 12.56Q146.13 12.56 145.93 12.53Q145.73 12.49 145.65 12.47L145.65 12.47L145.65 11.59Q145.69 11.59 145.80 11.60Q145.90 11.61 145.94 11.61L145.94 11.61Q146.31 11.61 146.57 11.51Q146.82 11.42 147.00 11.19Q147.18 10.97 147.31 10.57L147.31 10.57ZM145.28 3.66L146.47 3.66L148.11 8.58L148.39 9.72L147.62 10.12L145.28 3.66ZM155.35 8.32L155.35 8.32Q155.35 8.08 155.25 7.88Q155.14 7.68 154.83 7.51Q154.52 7.35 153.89 7.22L153.89 7.22Q153.36 7.11 152.94 6.96Q152.51 6.81 152.22 6.59Q151.92 6.37 151.76 6.08Q151.61 5.79 151.61 5.39L151.61 5.39Q151.61 5.02 151.77 4.69Q151.94 4.35 152.25 4.09Q152.55 3.84 152.99 3.69Q153.42 3.54 153.96 3.54L153.96 3.54Q154.72 3.54 155.26 3.81Q155.79 4.08 156.08 4.53Q156.37 4.98 156.37 5.52L156.37 5.52L155.29 5.52Q155.29 5.26 155.13 5.01Q154.97 4.76 154.68 4.60Q154.38 4.43 153.96 4.43L153.96 4.43Q153.50 4.43 153.23 4.57Q152.95 4.71 152.82 4.92Q152.70 5.13 152.70 5.37L152.70 5.37Q152.70 5.54 152.76 5.68Q152.82 5.82 152.98 5.93Q153.13 6.04 153.42 6.14Q153.71 6.24 154.15 6.34L154.15 6.34Q154.93 6.52 155.44 6.77Q155.94 7.01 156.19 7.37Q156.43 7.73 156.43 8.24L156.43 8.24Q156.43 8.65 156.26 9.00Q156.09 9.34 155.76 9.59Q155.44 9.84 154.99 9.98Q154.54 10.12 153.98 10.12L153.98 10.12Q153.15 10.12 152.57 9.82Q151.99 9.52 151.69 9.04Q151.39 8.57 151.39 8.04L151.39 8.04L152.48 8.04Q152.50 8.49 152.74 8.75Q152.97 9.01 153.31 9.12Q153.65 9.23 153.98 9.23L153.98 9.23Q154.43 9.23 154.73 9.11Q155.03 8.99 155.19 8.79Q155.35 8.58 155.35 8.32ZM157.08 3.66L160.51 3.66L160.51 4.49L157.08 4.49L157.08 3.66ZM158.24 8.42L158.24 2.12L159.32 2.12L159.32 8.43Q159.32 8.75 159.42 8.92Q159.52 9.08 159.68 9.13Q159.84 9.19 160.02 9.19L160.02 9.19Q160.15 9.19 160.30 9.16Q160.45 9.13 160.53 9.12L160.53 9.12L160.54 10Q160.41 10.04 160.20 10.08Q159.99 10.12 159.70 10.12L159.70 10.12Q159.30 10.12 158.96 9.96Q158.63 9.80 158.43 9.43Q158.24 9.06 158.24 8.42L158.24 8.42Z"></path></svg></svg>
